<svg width="302" height="379" viewBox="0 0 302 379" fill="none" xmlns="http://www.w3.org/2000/svg">
<path fill-rule="evenodd" clip-rule="evenodd" d="M0 151.641C0 148.848 7.69401 140.831 74.247 74.273C132.687 15.8291 149.028 0.016004 150.997 3.98072e-06C154.493 -0.027996 302 147.665 302 151.194C302 152.934 283.431 172.086 227.753 227.767C165.692 289.832 153.057 302.02 150.776 302.02C148.498 302.02 135.793 289.832 74.023 228.388C7.58801 162.304 0 154.437 0 151.641ZM165.869 30.52L158.71 23.27C154.772 19.282 151.314 16.026 151.025 16.034C150.736 16.041 119.755 46.5291 82.178 83.784L13.857 151.52L53.986 191.487L70.009 175.558L46.147 151.52L165.869 30.52ZM208.975 73.392C205.964 70.286 197.287 61.619 189.694 54.132C182.1 46.646 175.574 40.407 175.191 40.269C174.808 40.131 149.408 65.109 118.745 95.775L62.995 151.531L78.487 167.023L150.994 94.537L183.934 127.431L160.217 151.257C147.173 164.361 136.385 175.414 136.244 175.82C136.103 176.226 139.259 179.808 143.258 183.78L150.529 191.002L214.478 127.03L190.531 103.02L214.45 79.039L208.975 73.392ZM238.467 103.037L231.008 95.529C226.906 91.399 223.303 88.02 223 88.02C222.697 88.02 219.094 91.399 214.992 95.529L207.533 103.037L223 118.504L238.467 103.037ZM134.98 272.547L150.525 288.001L286.888 151.52L247.31 111.312L231.643 127.153L256.002 151.512L134.98 272.547ZM151.046 208.52L117.996 175.539L166.016 127.489L150.472 112.036L86.99 175.541L111.001 199.49L86.5 224.075L106.425 243.547C117.384 254.257 126.61 263.02 126.928 263.02C127.246 263.02 152.597 237.926 183.263 207.257L239.02 151.493L222.831 135.52L151.046 208.52ZM62.532 200.035L78 215.504L94.016 199.489L78.454 184.019L62.532 200.035Z" fill="url(#paint0_linear_974_193)"/>
<path d="M20.256 324.077C18.472 324.625 15.435 326.652 13.506 328.58C10.432 331.655 10 332.703 10 337.092C10 341.503 10.445 342.569 13.75 346.069C16.363 348.838 20.076 351.101 26 353.536C37.049 358.08 39.198 360.822 35 365.02C30.9 369.12 20 365.714 20 360.5C20 359 19 359 16 359.02L9 359V363C13 377.5 34.156 382.13 44.291 370.086C46.409 367.569 47 365.824 47 362.091C47 354.436 44.276 351.401 32.02 345.395C19.895 339.455 18.53 338.045 21.769 334.807C25.121 331.454 32.406 331.902 35.5 335.5C36 338.5 34.32 338.02 38.5 338.02H46.5L45.965 334.897C44.635 330.26 42.365 327.26 38.786 325.409C34.95 323.426 24.761 322.693 20.256 324.077Z" fill="black"/>
<path d="M77.52 348.252C73.206 362.15 69.476 374.083 69.231 374.77C68.907 375.68 70.405 376.02 74.735 376.02H80.685L84.014 364.973C85.845 358.897 87.632 353.748 87.984 353.53C88.336 353.312 90.782 358.171 93.42 364.327C96.057 370.483 98.519 375.85 98.892 376.254C99.264 376.658 100.877 373.958 102.476 370.254C104.075 366.55 106.49 361.045 107.841 358.02L110.299 352.52L117.853 375.52L123.427 375.82C126.492 375.985 129 375.836 129 375.488C129 374.446 113.5 324.5 113 324C112.5 323.5 109.829 328.618 105.785 338.037C102.194 346.401 99.026 352.856 98.744 352.382C98.462 351.908 95.658 345.445 92.514 338.02C89.369 330.595 86.474 324.175 86.08 323.752C85.687 323.33 81.835 334.355 77.52 348.252Z" fill="black"/>
<path fill-rule="evenodd" clip-rule="evenodd" d="M170.723 324.27C170.453 324.958 166.078 336.32 161 349.52C155.922 362.72 151.547 374.083 151.277 374.77C150.923 375.672 152.223 376.02 155.945 376.02C160.778 376.02 161.17 375.831 162.15 373.02L163.196 370.02H180.174L181.306 373.02C182.347 375.777 182.826 376.02 187.219 376.02C189.849 376.02 192.005 375.683 192.012 375.27C192.037 373.749 172.478 323.068 171.857 323.045C171.503 323.031 170.993 323.583 170.723 324.27ZM175.678 360.675C175.937 360.417 175.334 357.914 174.339 355.113C173.344 352.312 172.246 350.02 171.899 350.02C171.552 350.02 170.367 352.383 169.266 355.27L167.265 360.52L171.237 360.833C173.421 361.005 175.42 360.934 175.678 360.675Z" fill="black"/>
<path fill-rule="evenodd" clip-rule="evenodd" d="M217 350.187V377H227V360H231C234.372 360 235.496 360.702 240 365.02C250.128 374.731 265.795 379.867 279 378C284.543 377.217 292 373.685 292 372.605C292 371.417 288.573 365.02 287.937 365.02C287.556 365.02 285.629 365.695 283.654 366.52C274.953 370.156 259.649 367.483 251.72 360.943L247.94 357.825L253.5 354C260.522 347.819 260.552 340.527 255.773 331.888C254.668 329.89 251.905 327.203 249.632 325.916C245.989 323.852 243.903 323.332 232 323L231.308 322.981H231.306L223.5 323C217 323 217.5 323 217 323C217 323.5 217.114 327.987 217 335C217.052 339.402 217 344.677 217 350.187ZM248 341.799C248 337.403 246.132 335.648 242 334.5C239.944 333.929 236.163 334.072 233 334.069H227V349.225L235.396 348.873C244.969 348.471 248 346.77 248 341.799Z" fill="black"/>
<path d="M263 324.02V334.069H273V360H282V334.069H292V324.02H263Z" fill="black"/>
<defs>
<linearGradient id="paint0_linear_974_193" x1="151" y1="0" x2="151" y2="377.431" gradientUnits="userSpaceOnUse">
<stop stop-color="#F08EF2"/>
<stop offset="0.74" stop-color="#EA5F76"/>
<stop offset="0.98" stop-color="white"/>
</linearGradient>
</defs>
</svg>
