<svg width="21" height="21" viewBox="0 0 21 21" fill="none" xmlns="http://www.w3.org/2000/svg">
<path d="M6.83719 0C6.45362 4.88372e-05 6.07215 0.157647 5.80091 0.42884C5.52972 0.700033 5.37212 1.08155 5.37207 1.46512V19.5349C5.37212 19.9185 5.52972 20.2999 5.80091 20.5712C6.0721 20.8424 6.45362 21 6.83719 21H14.1628C14.5463 21 14.9278 20.8424 15.199 20.5712C15.4702 20.2999 15.6278 19.9185 15.6279 19.5349V1.46512C15.6278 1.08155 15.4702 0.700081 15.199 0.42884C14.9279 0.157647 14.5463 4.88372e-05 14.1628 0H6.83719ZM9.73231 0.976744C9.73587 0.976647 9.73944 0.976647 9.743 0.976744C9.75116 0.976354 9.75926 0.976354 9.76742 0.976744H11.2325C11.3674 0.97484 11.4783 1.08262 11.4802 1.21746C11.4821 1.3523 11.3743 1.46321 11.2395 1.46512C11.2372 1.46517 11.2349 1.46517 11.2326 1.46512H9.76747C9.63258 1.47469 9.51552 1.37316 9.5059 1.23827C9.49627 1.10353 9.59761 0.986512 9.73231 0.976744ZM5.86044 2.44186H15.1395V18.314H5.86044V2.44186ZM10.5 18.8023C10.9045 18.8023 11.2325 19.1303 11.2325 19.5349C11.2325 19.9395 10.9045 20.2674 10.5 20.2674C10.0954 20.2674 9.76742 19.9395 9.76742 19.5349C9.76742 19.1303 10.0954 18.8023 10.5 18.8023Z" fill="#702DFF"/>
</svg>
