<svg width="41" height="40" viewBox="0 0 41 40" fill="none" xmlns="http://www.w3.org/2000/svg">
<path d="M28.881 11.9721C28.8892 11.9721 28.9001 11.9721 28.911 11.9721C29.1955 11.9721 29.4596 12.0584 29.676 12.2072L29.6719 12.2045C29.8298 12.3386 29.936 12.5272 29.9619 12.7397V12.7437C29.9891 12.9057 30.0041 13.0916 30.0041 13.2815C30.0041 13.3679 30.0013 13.4529 29.9945 13.5378V13.5259C29.6882 16.672 28.3597 24.3015 27.6845 27.8234C27.3987 29.3147 26.8365 29.8141 26.292 29.8619C25.1091 29.9695 24.2107 29.0996 23.0645 28.3665C21.2705 27.2178 20.2563 26.5033 18.5153 25.3838C16.5021 24.0916 17.8075 23.3785 18.9537 22.2178C19.2545 21.9123 24.4693 17.2842 24.5714 16.8645C24.5769 16.8393 24.5796 16.8114 24.5796 16.7822C24.5796 16.6786 24.5401 16.5843 24.4761 16.5126C24.4053 16.4675 24.3169 16.4422 24.2243 16.4422C24.163 16.4422 24.1045 16.4542 24.0501 16.4741L24.0528 16.4728C23.8731 16.5126 21.0073 18.3603 15.4553 22.0159C14.8496 22.4821 14.0846 22.7769 13.2515 22.8114H13.2433C12.0631 22.672 10.9919 22.4157 9.97503 22.0505L10.0758 22.0823C8.79894 21.676 7.78483 21.4621 7.87195 20.7742C7.91823 20.4166 8.42369 20.0505 9.38835 19.676C15.3305 17.1501 19.2931 15.4852 21.2759 14.6813C23.4634 13.5485 25.9993 12.6162 28.666 12.012L28.8797 11.9708L28.881 11.9721ZM20.4524 0C9.15149 0.0265604 0 8.97078 0 20C0 31.0452 9.17736 40 20.5 40C31.8226 40 41 31.0465 41 20C41 8.97078 31.8485 0.0265604 20.5504 0H20.5476C20.5159 0 20.4841 0 20.4524 0Z" fill="white"/>
</svg>
