<svg width="40" height="40" viewBox="0 0 40 40" fill="none" xmlns="http://www.w3.org/2000/svg">
<path d="M31.5212 28.0025H28.7975C27.7662 28.0025 27.4475 27.1825 25.595 25.305C23.9812 23.7425 23.2675 23.5325 22.8712 23.5325C22.315 23.5325 22.1562 23.6913 22.1562 24.4588V26.9188C22.1562 27.5813 21.945 27.9775 20.1987 27.9775C16.6762 27.7413 13.6487 25.82 11.8912 23.02L11.865 22.9763C9.82498 20.4425 8.32123 17.3888 7.57748 14.0488L7.54998 13.9025C7.54998 13.5063 7.70873 13.135 8.47623 13.135H11.2C11.8875 13.135 12.1525 13.4525 12.4187 14.1925C13.7662 18.0825 16.0162 21.495 16.9425 21.495C17.2862 21.495 17.445 21.3363 17.445 20.4638V16.44C17.3387 14.5875 16.36 14.43 16.36 13.7688C16.3712 13.415 16.6612 13.1325 17.0162 13.1325C17.0275 13.1325 17.0375 13.1325 17.0487 13.1338H17.0475H21.3337C21.9162 13.1338 22.1275 13.4513 22.1275 14.1388V19.5638C22.1275 20.145 22.3925 20.3575 22.5512 20.3575C22.895 20.3575 23.1875 20.145 23.8212 19.5113C25.1387 17.9025 26.265 16.0625 27.1237 14.0788L27.1812 13.9288C27.3625 13.475 27.7975 13.16 28.3062 13.16C28.33 13.16 28.3525 13.1613 28.3762 13.1625H28.3725H31.0962C31.9162 13.1625 32.1025 13.5838 31.9162 14.1675C30.8237 16.5738 29.5962 18.6413 28.1737 20.5563L28.2387 20.4638C27.9487 20.94 27.8425 21.1513 28.2387 21.6825C28.5287 22.0788 29.4825 22.8988 30.1175 23.64C31.0362 24.5488 31.8062 25.6063 32.3875 26.7738L32.4187 26.8425C32.6837 27.6075 32.2862 28.005 31.5187 28.005L31.5212 28.0025ZM25.755 1.255H14.2462C3.74248 1.255 1.25623 3.74126 1.25623 14.245V25.7538C1.25623 36.2575 3.74248 38.7438 14.2462 38.7438H25.755C36.2587 38.7438 38.745 36.2575 38.745 25.7538V14.245C38.745 3.74126 36.2312 1.255 25.755 1.255Z" fill="white"/>
</svg>
