<?xml version="1.0" encoding="utf-8"?>
<!-- Generator: Adobe Illustrator 27.5.0, SVG Export Plug-In . SVG Version: 6.00 Build 0)  -->
<svg version="1.1" xmlns="http://www.w3.org/2000/svg" xmlns:xlink="http://www.w3.org/1999/xlink" x="0px" y="0px"
	 viewBox="0 0 3710 3710" style="enable-background:new 0 0 3710 3710;" xml:space="preserve">
<g id="Background">
	<g>
		<g>
			<rect style="fill:#FFFFFF;" width="3710" height="3710"/>
		</g>
	</g>
</g>
<g id="Illustration">
	<g>
		<linearGradient id="SVGID_1_" gradientUnits="userSpaceOnUse" x1="3470.52" y1="3292.8938" x2="1388.1823" y2="1470.8495">
			<stop  offset="0" style="stop-color:#DAE3FE"/>
			<stop  offset="1" style="stop-color:#E9EFFD"/>
		</linearGradient>
		<path style="fill:url(#SVGID_1_);" d="M3116.631,2346.625c-269.122,633.674-986,988.662-1607.679,892.906
			c-101.16-15.582-378.491-61.997-624.031-280.967C412.242,2537.03,311.156,1702.338,692.452,1114.111
			c277.517-428.126,774.993-670.816,1247.694-658.677c101.82,2.615,492.035,18.73,834.967,301.504
			c50.37,41.534,161.466,140.23,261.59,296.805C3271.812,1421.411,3292.021,1933.652,3116.631,2346.625z"/>
		<g>
			<path style="fill:#BDD0FB;" d="M2964.02,799.555c-0.445-0.858-1.385-1.34-2.342-1.199l-27.269,4.017
				c-8.625-10.066-18.719-18.469-29.786-25.06l-0.689-27.573c-0.024-0.966-0.658-1.811-1.58-2.103l-31.536-10
				c-0.922-0.292-1.927,0.032-2.504,0.808l-16.452,22.137c-12.842-0.991-25.935,0.059-38.784,3.316l-19.971-18.998
				c-0.7-0.666-1.747-0.815-2.605-0.37l-29.371,15.228c-0.858,0.445-1.34,1.385-1.199,2.342l4.017,27.269
				c-10.066,8.624-18.469,18.719-25.06,29.786l-27.573,0.689c-0.967,0.024-1.811,0.659-2.103,1.58l-10,31.536
				c-0.292,0.921,0.032,1.927,0.808,2.503l22.137,16.452c-0.991,12.842,0.059,25.936,3.316,38.784l-18.998,19.971
				c-0.666,0.7-0.814,1.747-0.37,2.605l15.228,29.37c0.445,0.858,1.385,1.34,2.343,1.199l27.269-4.017
				c8.624,10.067,18.72,18.47,29.785,25.06l0.689,27.573c0.024,0.967,0.659,1.811,1.581,2.104l31.536,10
				c0.922,0.292,1.927-0.032,2.504-0.808l16.452-22.137c12.842,0.991,25.935-0.059,38.784-3.316l19.971,18.998
				c0.7,0.666,1.747,0.815,2.605,0.37l29.37-15.228c0.858-0.445,1.34-1.385,1.199-2.343l-4.017-27.269
				c10.066-8.624,18.469-18.72,25.06-29.786l27.573-0.689c0.967-0.024,1.811-0.659,2.104-1.58l10-31.536
				c0.292-0.922-0.032-1.927-0.808-2.504l-22.137-16.453c0.99-12.842-0.059-25.935-3.316-38.784l18.998-19.971
				c0.667-0.7,0.815-1.747,0.37-2.605L2964.02,799.555z M2862.17,903.078c-12.137,10.766-30.704,9.655-41.47-2.482
				c-10.766-12.137-9.655-30.704,2.483-41.47c12.137-10.766,30.704-9.654,41.47,2.483
				C2875.419,873.745,2874.307,892.312,2862.17,903.078z"/>
		</g>
		<g>
			<g>
				<path style="fill:#BDD0FB;" d="M2700.191,696.462c-0.247-0.476-0.769-0.744-1.301-0.666l-15.146,2.231
					c-4.79-5.591-10.397-10.258-16.543-13.918l-0.382-15.314c-0.014-0.537-0.366-1.006-0.878-1.168l-17.515-5.554
					c-0.512-0.162-1.07,0.018-1.391,0.449l-9.138,12.295c-7.133-0.55-14.405,0.033-21.541,1.841l-11.093-10.551
					c-0.389-0.37-0.97-0.453-1.447-0.206l-16.313,8.458c-0.477,0.247-0.744,0.769-0.666,1.301l2.232,15.146
					c-5.591,4.79-10.258,10.397-13.919,16.543l-15.314,0.383c-0.537,0.013-1.006,0.366-1.168,0.878l-5.554,17.515
					c-0.162,0.512,0.018,1.07,0.449,1.391l12.295,9.138c-0.551,7.133,0.033,14.404,1.842,21.541l-10.551,11.092
					c-0.37,0.389-0.453,0.97-0.206,1.447l8.458,16.312c0.247,0.477,0.769,0.744,1.301,0.666l15.145-2.231
					c4.79,5.591,10.397,10.258,16.543,13.919l0.383,15.314c0.013,0.537,0.366,1.006,0.878,1.168l17.515,5.554
					c0.512,0.162,1.07-0.018,1.391-0.449l9.138-12.295c7.133,0.551,14.405-0.033,21.541-1.842l11.093,10.551
					c0.389,0.37,0.97,0.453,1.447,0.206l16.313-8.458c0.477-0.247,0.744-0.77,0.666-1.301l-2.231-15.146
					c5.591-4.79,10.258-10.397,13.918-16.543l15.314-0.383c0.537-0.013,1.006-0.366,1.169-0.878l5.554-17.516
					c0.163-0.511-0.018-1.07-0.449-1.391l-12.295-9.137c0.55-7.133-0.033-14.404-1.842-21.541l10.552-11.092
					c0.37-0.389,0.452-0.97,0.205-1.447L2700.191,696.462z M2643.623,753.96c-6.741,5.98-17.053,5.362-23.033-1.379
					c-5.98-6.741-5.362-17.053,1.379-23.033c6.741-5.98,17.053-5.362,23.033,1.379
					C2650.982,737.668,2650.364,747.98,2643.623,753.96z"/>
			</g>
		</g>
		<g>
			<g style="opacity:0.3;">
				<path style="fill:#91B3FA;" d="M2724.368,1161.177c-3.625-0.957-5.786-4.674-4.828-8.297c1.861-7.041,3.444-14.267,4.705-21.48
					c0.638-3.649,4.08-6.103,7.725-5.537c0.043,0.007,0.086,0.013,0.131,0.02c3.692,0.646,6.162,4.163,5.516,7.856
					c-1.328,7.591-2.993,15.199-4.953,22.611c-0.895,3.389-4.205,5.499-7.595,4.973
					C2724.835,1161.286,2724.601,1161.239,2724.368,1161.177z M2727.975,1095.876c0.266-7.313,0.222-14.706-0.132-21.981
					c-0.182-3.741,2.704-6.926,6.448-7.109c3.759-0.17,6.927,2.707,7.109,6.451c0.373,7.653,0.42,15.436,0.142,23.131
					c-0.136,3.746-3.285,6.673-7.031,6.536c-0.272-0.01-0.54-0.036-0.802-0.077
					C2730.357,1102.307,2727.848,1099.35,2727.975,1095.876z M2723.629,1038.444c-1.365-7.169-3.058-14.365-5.034-21.393
					c-1.015-3.608,1.089-7.357,4.697-8.372c3.606-1.01,7.354,1.088,8.372,4.697c2.081,7.401,3.865,14.981,5.301,22.529
					c0.701,3.682-1.717,7.235-5.398,7.938c-0.785,0.149-1.564,0.157-2.311,0.041
					C2726.499,1043.456,2724.18,1041.342,2723.629,1038.444z M2706.548,983.427c-2.936-6.691-6.198-13.331-9.691-19.739
					c-1.794-3.292-0.581-7.415,2.71-9.209c3.292-1.791,7.413-0.577,9.209,2.71c3.678,6.748,7.111,13.739,10.203,20.779
					c1.506,3.432-0.055,7.437-3.487,8.943c-1.228,0.539-2.529,0.686-3.763,0.494C2709.513,987.062,2707.517,985.63,2706.548,983.427
					z M2677.636,933.586c-4.338-5.857-8.989-11.613-13.825-17.102c-2.477-2.815-2.204-7.103,0.609-9.581
					c2.814-2.479,7.104-2.205,9.579,0.61c5.087,5.775,9.98,11.831,14.545,17.995c2.231,3.011,1.598,7.262-1.415,9.493
					c-1.518,1.125-3.35,1.522-5.081,1.253C2680.345,935.99,2678.742,935.081,2677.636,933.586z M2638.416,891.385
					c-5.534-4.76-11.341-9.341-17.261-13.616c-3.038-2.194-3.723-6.438-1.53-9.475c2.195-3.04,6.436-3.726,9.477-1.531
					c6.23,4.498,12.343,9.322,18.167,14.331c2.841,2.445,3.163,6.729,0.719,9.572c-1.588,1.846-3.952,2.627-6.193,2.279
					C2640.585,892.758,2639.413,892.243,2638.416,891.385z M2393.009,833.931c-1.009-3.61,1.099-7.355,4.71-8.364
					c7.396-2.066,14.983-3.836,22.548-5.262c3.685-0.694,7.233,1.729,7.926,5.414c0.695,3.682-1.729,7.231-5.412,7.925
					c-7.183,1.353-14.387,3.036-21.41,4.998c-0.964,0.269-1.935,0.317-2.864,0.172
					C2395.958,838.419,2393.747,836.578,2393.009,833.931z M2590.847,858.947c-6.451-3.408-13.127-6.578-19.847-9.419
					c-3.453-1.462-5.068-5.445-3.608-8.896c1.461-3.454,5.438-5.05,8.896-3.606c7.076,2.993,14.108,6.331,20.9,9.921
					c3.314,1.752,4.581,5.857,2.83,9.173c-1.389,2.628-4.26,3.97-7.042,3.538C2592.251,859.544,2591.533,859.308,2590.847,858.947z
					 M2451.152,823.035c-0.175-3.743,2.719-6.921,6.464-7.096c7.67-0.357,15.457-0.387,23.144-0.095
					c3.75,0.126,6.665,3.297,6.524,7.042c-0.143,3.745-3.295,6.665-7.042,6.524c-7.305-0.279-14.706-0.25-21.995,0.091
					c-0.465,0.022-0.921-0.006-1.363-0.075C2453.76,828.94,2451.304,826.313,2451.152,823.035z M2537.231,837.958
					c-7.046-1.878-14.266-3.476-21.462-4.749c-3.693-0.651-6.155-4.173-5.502-7.865c0.645-3.643,4.083-6.09,7.722-5.525
					c0.047,0.007,0.096,0.015,0.142,0.025c7.576,1.337,15.177,3.019,22.594,4.995c3.622,0.968,5.776,4.685,4.811,8.308
					c-0.901,3.383-4.207,5.486-7.592,4.96C2537.708,838.069,2537.469,838.019,2537.231,837.958z"/>
				<path style="fill:#91B3FA;" d="M2353.954,855.74c1.321,0.205,2.716,0.025,4.009-0.606c3.146-1.535,6.375-3.026,9.6-4.442
					c3.433-1.503,4.998-5.508,3.493-8.94c-1.503-3.434-5.508-5.003-8.941-3.492c-3.393,1.485-6.789,3.056-10.1,4.67
					c-3.369,1.642-4.77,5.707-3.128,9.074C2349.9,854.083,2351.832,855.411,2353.954,855.74z"/>
			</g>
			<g style="opacity:0.3;">
				<path style="fill:#91B3FA;" d="M2218.128,1011.853c3.237,0.503,6.45-1.402,7.492-4.619c1.076-3.329,2.241-6.692,3.462-9.993
					c1.3-3.517-0.497-7.421-4.012-8.72c-3.531-1.305-7.421,0.498-8.72,4.012c-1.284,3.476-2.512,7.018-3.646,10.523
					c-1.154,3.566,0.802,7.393,4.369,8.547C2217.422,1011.717,2217.775,1011.799,2218.128,1011.853z"/>
				<path style="fill:#91B3FA;" d="M2415.599,1352.225c-3.671-0.755-6.036-4.345-5.279-8.018c0.756-3.671,4.341-6.028,8.017-5.278
					c6.99,1.44,14.15,2.602,21.362,3.475c3.705,0.436,6.373,3.834,5.922,7.555s-3.832,6.373-7.554,5.924
					c-3.125-0.378-6.231-0.807-9.317-1.286C2424.348,1353.913,2419.923,1353.116,2415.599,1352.225z M2468.116,1351.142
					c-0.057-3.746,2.935-6.831,6.682-6.888c7.196-0.112,14.464-0.526,21.604-1.236c3.724-0.382,7.055,2.351,7.427,6.082
					c0.371,3.728-2.353,7.053-6.082,7.424c-7.517,0.749-15.169,1.186-22.741,1.301c-0.393,0.006-0.779-0.021-1.153-0.08
					C2470.646,1357.247,2468.168,1354.499,2468.116,1351.142z M2379.969,1342.303c-7.119-2.52-14.228-5.378-21.128-8.499
					c-3.416-1.545-4.932-5.566-3.388-8.983c1.545-3.414,5.564-4.926,8.982-3.387c6.553,2.965,13.302,5.68,20.062,8.071
					c3.534,1.252,5.385,5.129,4.135,8.665c-1.107,3.126-4.27,4.934-7.432,4.443
					C2380.788,1342.548,2380.376,1342.446,2379.969,1342.303z M2526.038,1345.336c-0.879-3.643,1.362-7.312,5.006-8.189
					c6.985-1.684,13.981-3.689,20.794-5.955c3.559-1.186,7.399,0.739,8.583,4.297c1.184,3.556-0.74,7.398-4.296,8.581
					c-7.175,2.387-14.543,4.498-21.898,6.272c-0.889,0.213-1.779,0.244-2.631,0.112
					C2528.959,1350.046,2526.702,1348.09,2526.038,1345.336z M2326.293,1316.295c-6.386-4.021-12.689-8.372-18.736-12.933
					c-2.993-2.257-3.589-6.511-1.333-9.503c2.257-2.995,6.514-3.59,9.506-1.333c5.744,4.331,11.731,8.465,17.796,12.283
					c3.172,1.998,4.125,6.189,2.127,9.361c-1.488,2.364-4.194,3.494-6.788,3.091
					C2327.977,1317.122,2327.101,1316.804,2326.293,1316.295z M2279.622,1279.145c-5.366-5.333-10.569-10.954-15.465-16.707
					c-2.429-2.856-2.084-7.139,0.771-9.569c2.859-2.432,7.142-2.087,9.567,0.772c4.653,5.466,9.597,10.809,14.696,15.877
					c2.659,2.642,2.672,6.94,0.029,9.599c-1.593,1.601-3.787,2.242-5.86,1.92
					C2281.991,1280.825,2280.677,1280.194,2279.622,1279.145z M2242.154,1232.706c-4.079-6.378-7.934-13-11.458-19.678
					c-1.75-3.317-0.479-7.421,2.835-9.171c3.32-1.752,7.422-0.479,9.17,2.835c3.348,6.347,7.011,12.636,10.889,18.698
					c2.02,3.158,1.097,7.356-2.061,9.374c-1.451,0.928-3.119,1.235-4.696,0.99
					C2244.975,1235.468,2243.246,1234.413,2242.154,1232.706z M2215.709,1179.2c-2.586-7.115-4.897-14.423-6.87-21.721
					c-0.979-3.618,1.162-7.346,4.782-8.323c3.613-0.976,7.344,1.165,8.322,4.783c1.873,6.928,4.067,13.867,6.524,20.626
					c1.28,3.523-0.537,7.416-4.06,8.696c-1.113,0.404-2.261,0.5-3.354,0.33C2218.686,1183.222,2216.586,1181.611,2215.709,1179.2z
					 M2201.66,1121.16c-0.952-7.491-1.596-15.123-1.914-22.684c-0.157-3.746,2.751-6.911,6.497-7.067
					c3.733-0.156,6.908,2.75,7.066,6.496c0.301,7.183,0.913,14.431,1.816,21.548c0.473,3.717-2.159,7.116-5.877,7.587
					c-0.647,0.082-1.286,0.072-1.9-0.024C2204.436,1126.563,2202.05,1124.231,2201.66,1121.16z M2200.7,1061.514
					c0.517-5.541,1.211-11.134,2.063-16.623c0.309-1.988,0.639-3.965,0.989-5.937c0.656-3.689,4.146-6.23,7.869-5.494
					c3.691,0.654,6.151,4.178,5.496,7.87c-0.332,1.872-0.647,3.755-0.941,5.644c-0.81,5.219-1.471,10.533-1.963,15.802
					c-0.348,3.732-3.656,6.475-7.388,6.126c-0.14-0.014-0.28-0.03-0.417-0.051C2202.892,1068.305,2200.364,1065.106,2200.7,1061.514
					z"/>
				<path style="fill:#91B3FA;" d="M2586.46,1330.553c1.333,0.207,2.74,0.021,4.041-0.62c3.295-1.627,6.618-3.354,9.876-5.134
					c3.291-1.797,4.501-5.92,2.705-9.209c-1.798-3.29-5.917-4.503-9.209-2.705c-3.095,1.69-6.252,3.33-9.38,4.875
					c-3.36,1.657-4.741,5.727-3.082,9.089C2582.427,1328.91,2584.351,1330.225,2586.46,1330.553z"/>
			</g>
			<g>
				<path style="fill:#91B3FA;" d="M2623.928,1220.391c1.006-0.906,1.328-2.349,0.8-3.595l-15.043-35.558
					c10.306-14.795,18.326-31.34,23.511-49.156l37.093-10.625c1.301-0.373,2.222-1.53,2.294-2.882l2.458-46.246
					c0.073-1.352-0.722-2.6-1.975-3.108l-35.758-14.497c-3.267-18.265-9.489-35.568-18.168-51.372l18.728-33.763
					c0.656-1.184,0.49-2.653-0.415-3.659l-30.963-34.439c-0.905-1.006-2.349-1.328-3.595-0.8l-35.558,15.044
					c-14.795-10.306-31.34-18.328-49.156-23.512l-10.625-37.093c-0.373-1.301-1.53-2.223-2.881-2.294l-46.247-2.458
					c-1.352-0.071-2.599,0.722-3.108,1.976l-14.496,35.758c-18.266,3.267-35.568,9.489-51.372,18.169l-33.763-18.728
					c-1.184-0.656-2.653-0.49-3.66,0.415l-34.439,30.963c-1.006,0.904-1.327,2.349-0.801,3.594l15.044,35.559
					c-10.307,14.795-18.327,31.339-23.511,49.156l-37.093,10.625c-1.301,0.372-2.223,1.529-2.294,2.881l-2.458,46.247
					c-0.072,1.352,0.722,2.6,1.976,3.108l35.758,14.497c3.267,18.265,9.489,35.568,18.169,51.372l-18.728,33.763
					c-0.657,1.183-0.49,2.653,0.415,3.66l30.963,34.439c0.905,1.006,2.348,1.328,3.595,0.8l35.558-15.044
					c14.795,10.306,31.34,18.327,49.156,23.512l10.625,37.093c0.373,1.3,1.53,2.222,2.881,2.294l46.247,2.458
					c1.351,0.072,2.6-0.721,3.108-1.976l14.497-35.757c18.265-3.267,35.567-9.49,51.372-18.169l33.763,18.728
					c1.183,0.657,2.653,0.49,3.659-0.415L2623.928,1220.391z"/>
				<g>
					<path style="fill:#BDD0FB;" d="M2456.986,1129.128c-24.519-7.596-38.288-33.72-30.693-58.241
						c3.678-11.878,11.763-21.613,22.763-27.409c10.998-5.797,23.598-6.966,35.476-3.284c24.519,7.596,38.288,33.72,30.693,58.242
						c-6.91,22.307-29.156,35.715-51.58,32.234C2461.423,1130.324,2459.196,1129.813,2456.986,1129.128z M2454.119,1053.086
						c-8.435,4.445-14.632,11.908-17.454,21.016c-5.822,18.797,4.735,38.832,23.533,44.654c18.803,5.831,38.832-4.735,44.655-23.534
						c5.822-18.798-4.735-38.832-23.534-44.654c-1.705-0.528-3.426-0.924-5.158-1.193
						C2468.642,1048.207,2460.974,1049.474,2454.119,1053.086z"/>
				</g>
				<path style="fill:#BDD0FB;" d="M2452.388,1196.963c3.851,0.598,7.755,1.006,11.699,1.216l0,0
					c1.241,0.067,2.485,0.112,3.728,0.139c6.131,0.128,12.262-0.231,18.3-1.073c0.082-0.011,0.164-0.023,0.247-0.034
					c0.233-0.034,0.467-0.067,0.7-0.103c0.454-0.066,0.908-0.138,1.361-0.21c1.191-0.191,2.076-1.129,2.253-2.261
					c0.043-0.275,0.043-0.562-0.003-0.851c-0.237-1.48-1.632-2.483-3.111-2.249c-7.618,1.224-15.418,1.633-23.185,1.219
					c-38.583-2.044-71.465-24.021-89.196-55.397c-9.865-17.45-15.039-37.81-13.897-59.269c0.199-3.763,0.587-7.488,1.159-11.161
					c3.841-24.72,15.967-47.181,34.822-64.132c21.657-19.472,49.602-29.345,78.684-27.799
					c60.062,3.198,106.285,54.633,103.094,114.666c-0.197,3.702-0.58,7.38-1.146,11.018c-2.451,15.769-8.325,30.826-17.254,44.07
					c-0.23,0.343-0.373,0.717-0.431,1.1c-0.156,1.006,0.263,2.061,1.165,2.668c1.247,0.835,2.93,0.514,3.77-0.735
					c9.374-13.905,15.543-29.713,18.116-46.268c0.594-3.819,0.997-7.68,1.204-11.565c3.351-63.03-45.22-117.029-108.227-120.379
					c-30.532-1.623-59.866,8.742-82.603,29.184c-19.795,17.795-32.524,41.374-36.558,67.326c-0.599,3.857-1.006,7.767-1.217,11.716
					c-1.622,30.533,8.742,59.869,29.183,82.605C2402.843,1180.204,2426.431,1192.933,2452.388,1196.963z"/>
			</g>
		</g>
		<g>
			
				<linearGradient id="SVGID_00000127749379264350920440000009307666640118258107_" gradientUnits="userSpaceOnUse" x1="2966.0034" y1="1140.132" x2="752.0777" y2="2825.8306">
				<stop  offset="0" style="stop-color:#09005D"/>
				<stop  offset="1" style="stop-color:#1A0F91"/>
			</linearGradient>
			<path style="fill:url(#SVGID_00000127749379264350920440000009307666640118258107_);" d="M581.416,1137.359l2502.415-42.288
				c100.749-1.703,181.614,84.708,175.626,187.671l-86.135,1481.253c-4.714,81.068-69.919,144.571-149.251,145.356L618.645,2933.14
				c-59.414,0.588-108.503-47.318-110.765-108.095L450.329,1279.08C447.481,1202.573,506.633,1138.623,581.416,1137.359z"/>
			
				<linearGradient id="SVGID_00000097488007203789582960000008683775374557771690_" gradientUnits="userSpaceOnUse" x1="492.0135" y1="2009.2253" x2="3228.2249" y2="2009.2253">
				<stop  offset="0" style="stop-color:#4F52FF"/>
				<stop  offset="1" style="stop-color:#4042E2"/>
			</linearGradient>
			<path style="fill:url(#SVGID_00000097488007203789582960000008683775374557771690_);" d="M619.775,1175.095l2437.103-40.233
				c98.119-1.62,176.874,80.591,171.042,178.55l-83.887,1409.269c-4.591,77.128-68.094,137.546-145.355,138.292l-2342.646,22.632
				c-57.863,0.559-105.671-45.018-107.874-102.842L492.11,1309.928C489.336,1237.139,546.944,1176.297,619.775,1175.095z"/>
			<path style="opacity:0.16;fill:#91B3FA;" d="M665.352,1223.67l2320.7-38.311c93.433-1.542,168.425,76.742,162.873,170.022
				l-79.88,1341.959c-4.372,73.444-64.842,130.976-138.413,131.687l-2230.754,21.551c-55.099,0.532-100.623-42.868-102.721-97.93
				l-53.372-1400.585C541.143,1282.75,595.999,1224.814,665.352,1223.67z"/>
			<path style="fill:#BDD0FB;" d="M543.692,1400.887c-4.495,0-8.142-3.637-8.152-8.133c-0.009-4.503,3.632-8.162,8.135-8.172
				l2626.528-5.723c0.005,0,0.011,0,0.018,0c4.495,0,8.142,3.637,8.152,8.133c0.01,4.503-3.632,8.162-8.135,8.171l-2626.528,5.723
				C543.704,1400.887,543.698,1400.887,543.692,1400.887z"/>
			<path style="fill:#BDD0FB;" d="M1194.297,2833.156c-4.449,0-8.085-3.573-8.149-8.037l-22.334-1574.156
				c-0.064-4.499,3.534-8.203,8.036-8.267c4.591,0.026,8.204,3.535,8.267,8.038l22.334,1574.156c0.064,4.5-3.534,8.203-8.036,8.267
				C1194.376,2833.156,1194.336,2833.156,1194.297,2833.156z"/>
			<path style="fill:#BDD0FB;" d="M1900.04,2833.156c-4.503,0-8.152-3.649-8.152-8.152V1218.811c0-4.503,3.649-8.152,8.152-8.152
				c4.503,0,8.152,3.649,8.152,8.152v1606.192C1908.192,2829.506,1904.543,2833.156,1900.04,2833.156z"/>
			<path style="fill:#BDD0FB;" d="M2604.326,2833.156c-4.455,0-8.095-3.582-8.151-8.05l-19.838-1606.192
				c-0.056-4.503,3.549-8.197,8.052-8.254c4.551-0.137,8.197,3.55,8.253,8.05l19.838,1606.192c0.054,4.503-3.549,8.197-8.052,8.254
				C2604.395,2833.156,2604.36,2833.156,2604.326,2833.156z"/>
			<path style="fill:#91B3FA;" d="M608.072,1312.627L608.072,1312.627c0,20.96,7.718,37.952,17.237,37.952h420.85
				c9.52,0,17.238-16.992,17.238-37.952l0,0c0-20.961-7.718-37.953-17.238-37.953h-420.85
				C615.789,1274.674,608.072,1291.666,608.072,1312.627z"/>
			<path style="fill:#91B3FA;" d="M1254.056,1312.627L1254.056,1312.627c0,20.96,9.432,37.952,21.067,37.952h514.323
				c11.635,0,21.066-16.992,21.066-37.952l0,0c0-20.961-9.432-37.953-21.066-37.953h-514.323
				C1263.488,1274.674,1254.056,1291.666,1254.056,1312.627z"/>
			<path style="fill:#91B3FA;" d="M1969.838,1306.982L1969.838,1306.982c0,20.961,9.797,37.953,21.882,37.953h534.232
				c12.085,0,21.882-16.992,21.882-37.953l0,0c0-20.96-9.797-37.952-21.882-37.952H1991.72
				C1979.635,1269.03,1969.838,1286.022,1969.838,1306.982z"/>
			<path style="fill:#91B3FA;" d="M2670.414,1306.982L2670.414,1306.982c0,20.961,7.718,37.953,17.238,37.953h420.85
				c9.52,0,17.238-16.992,17.238-37.953l0,0c0-20.96-7.718-37.952-17.238-37.952h-420.85
				C2678.132,1269.03,2670.414,1286.022,2670.414,1306.982z"/>
			<path style="fill:#91B3FA;" d="M3142.777,1764.491h-489.4c-5.05,0-9.143-4.093-9.143-9.143v-279.469
				c0-5.049,4.093-9.143,9.143-9.143h489.4c5.05,0,9.143,4.093,9.143,9.143v279.469
				C3151.92,1760.397,3147.826,1764.491,3142.777,1764.491z"/>
			<path style="fill:#7D97F4;" d="M2489.382,2158.103h-445.819c-17.084,0-30.933-13.849-30.933-30.933v-235.888
				c0-17.084,13.849-30.933,30.933-30.933h445.819c17.084,0,30.933,13.849,30.933,30.933v235.888
				C2520.315,2144.253,2506.466,2158.103,2489.382,2158.103z"/>
			
				<linearGradient id="SVGID_00000173859964800085877620000001016245173991889046_" gradientUnits="userSpaceOnUse" x1="1128.7993" y1="1375.911" x2="542.0627" y2="1878.8282">
				<stop  offset="0" style="stop-color:#FEBBBA"/>
				<stop  offset="1" style="stop-color:#FF928E"/>
			</linearGradient>
			<path style="fill:url(#SVGID_00000173859964800085877620000001016245173991889046_);" d="M1106.219,1753.886h-489.4
				c-5.049,0-9.143-4.093-9.143-9.143v-279.469c0-5.049,4.093-9.143,9.143-9.143h489.4c5.05,0,9.143,4.093,9.143,9.143v279.469
				C1115.362,1749.792,1111.268,1753.886,1106.219,1753.886z"/>
			<path style="fill:#91B3FA;" d="M1801.687,1764.491h-489.4c-5.049,0-9.143-4.093-9.143-9.143v-279.469
				c0-5.049,4.093-9.143,9.143-9.143h489.4c5.049,0,9.143,4.093,9.143,9.143v279.469
				C1810.83,1760.397,1806.737,1764.491,1801.687,1764.491z"/>
			<path style="fill:#7D97F4;" d="M1074.279,2105.651H628.459c-17.084,0-30.933-13.849-30.933-30.933V1838.83
				c0-17.084,13.849-30.933,30.933-30.933h445.819c17.084,0,30.933,13.849,30.933,30.933v235.888
				C1105.212,2091.802,1091.363,2105.651,1074.279,2105.651z"/>
			<path style="fill:#91B3FA;" d="M1109.143,2458.617h-489.4c-5.049,0-9.143-4.094-9.143-9.143v-279.469
				c0-5.05,4.093-9.143,9.143-9.143h489.4c5.049,0,9.143,4.093,9.143,9.143v279.469
				C1118.286,2454.524,1114.192,2458.617,1109.143,2458.617z"/>
		</g>
		<g>
			<g>
				<path style="fill:#91B3FA;" d="M1901.414,2871.854c0,0-128.147,141.279-235.171,81.57
					c-86.014-47.988,36.188-35.448,139.846-58.122c8.135-1.779,6.005-13.938-2.25-12.844
					c-81.102,10.753-204.853,19.541-226.347-22.747c-32.448-63.839-0.981-43.135,97.774-33.913
					c98.756,9.221,117.783-15.164,53.321-30.352c-64.462-15.188-167.01,18.405-190.898-12.832
					c-23.888-31.237-36.946-93.243-46.468-119.91c-9.522-26.666,122.93-66.679,158.738-31.672
					c35.808,35.007,64.886,113.145,107.382,127.411c42.495,14.266-3.217-54.853-31.4-90.528
					c-28.183-35.676-39.356-62.19,16.951-53.681c56.307,8.509,86.072,77.231,92.008,128.528c5.936,51.297,25.768,79.988,24.87,54.61
					c-0.898-25.378-10.107-103.206-28.104-126.606C1813.669,2647.367,1942.142,2675.923,1901.414,2871.854z"/>
				<path style="opacity:0.53;fill:#FFFFFF;" d="M1890.984,2873.202c-0.564,0.214-1.223,0.12-1.71-0.308
					c-109.993-96.228-294.473-166.169-296.324-166.864c-0.871-0.327-1.311-1.297-0.985-2.17c0.326-0.867,1.298-1.31,2.169-0.983
					c1.856,0.695,186.899,70.846,297.359,167.484c0.699,0.611,0.77,1.675,0.158,2.375
					C1891.464,2872.953,1891.233,2873.107,1890.984,2873.202z"/>
			</g>
			<g>
				<path style="fill:#BDD0FB;" d="M1978.779,2962.086c0,0-234.027,7.721-272.819-137.64
					c-31.176-116.825,62.167,1.62,170.711,73.634c8.519,5.651,17.418-6.614,9.401-12.956
					c-78.765-62.313-192.234-163.904-173.315-218.98c28.56-83.144,37.189-37.715,113.427,57.225
					c76.238,94.94,113.991,90.883,72.31,21.078c-41.681-69.805-158.903-131.511-151.772-179.257
					c7.131-47.746,50.64-112.229,66.015-143.405c15.374-31.176,163.803,51.41,163.532,112.885
					c-0.271,61.475-44.315,153.864-20.589,203.514c23.727,49.651,45.61-49.697,52.984-105.021
					c7.375-55.324,21.205-87.826,61.806-30.916c40.602,56.91,5.445,141.859-34.707,190.916
					c-40.152,49.056-48.504,91.052-26.897,68.579c21.606-22.472,82.351-97.08,87.605-132.937
					C2101.726,2692.95,2186.306,2830.607,1978.779,2962.086z"/>
				<path style="opacity:0.53;fill:#FFFFFF;" d="M1968.681,2954.042c-0.67-0.314-1.151-0.976-1.189-1.77
					c-9.133-179.176-105.075-401.566-106.044-403.79c-0.456-1.048,0.023-2.264,1.072-2.723c1.043-0.453,2.264,0.025,2.72,1.073
					c0.973,2.23,97.211,225.294,106.381,405.232c0.059,1.138-0.818,2.11-1.959,2.169
					C1969.311,2954.252,1968.977,2954.181,1968.681,2954.042z"/>
			</g>
		</g>
		<g>
			
				<linearGradient id="SVGID_00000064316016245103655060000007174113801169005967_" gradientUnits="userSpaceOnUse" x1="529.8042" y1="1781.2599" x2="442.9478" y2="2047.4932" gradientTransform="matrix(1 0 0 1 1930.6143 0)">
				<stop  offset="0" style="stop-color:#FEBBBA"/>
				<stop  offset="1" style="stop-color:#FF928E"/>
			</linearGradient>
			<path style="fill:url(#SVGID_00000064316016245103655060000007174113801169005967_);" d="M2375.852,1800.948
				c0,0-120.833,154.706,17.029,312.055l51.83-4.83c0,0-99.772-160.201-55.333-287.903l73.418,5.36l40.6-26.464L2375.852,1800.948z"
				/>
			
				<linearGradient id="SVGID_00000162331125041563946600000011195598418854409094_" gradientUnits="userSpaceOnUse" x1="511.4166" y1="2727.3308" x2="694.4281" y2="2727.3308" gradientTransform="matrix(1 0 0 1 1930.6143 0)">
				<stop  offset="0" style="stop-color:#FEBBBA"/>
				<stop  offset="1" style="stop-color:#FF928E"/>
			</linearGradient>
			<path style="fill:url(#SVGID_00000162331125041563946600000011195598418854409094_);" d="M2442.031,2558.384
				c0,0,97.901,213.377,149.265,301.757c0,0,10.202,55.61,0,73.097l-8.694,3.865l40.576-1.208c0,0,3.605-74.802,0.79-78.98
				c-2.815-4.178-8.445-3.905-8.445-3.905s-17.399-137.842-67.786-167.26l-48.832-168.191L2442.031,2558.384z"/>
			
				<linearGradient id="SVGID_00000167363768272858844030000009404611084913779635_" gradientUnits="userSpaceOnUse" x1="762.9708" y1="2318.061" x2="672.3378" y2="2907.1726" gradientTransform="matrix(1 0 0 1 1930.6143 0)">
				<stop  offset="0" style="stop-color:#4F52FF"/>
				<stop  offset="1" style="stop-color:#4042E2"/>
			</linearGradient>
			<path style="fill:url(#SVGID_00000167363768272858844030000009404611084913779635_);" d="M2565.272,2947.578
				c-0.06,0.979,31.684,0.531,48.929,0.217c6.367-0.116,11.795-4.592,13.153-10.814l13.022-68.417
				c1.238-6.502-2.891-12.817-9.343-14.292l-7.269-1.661c0,0-10.369,14.225-7.105,27.617c3.264,13.393,6.169,48.083-2.08,52.126
				c-8.249,4.042-31.978,4.749-31.978,4.749S2565.815,2938.767,2565.272,2947.578z"/>
			
				<linearGradient id="SVGID_00000156581096373769791120000008703149342429196425_" gradientUnits="userSpaceOnUse" x1="571.2012" y1="2288.5593" x2="480.5681" y2="2877.6721" gradientTransform="matrix(1 0 0 1 1930.6143 0)">
				<stop  offset="0" style="stop-color:#4F52FF"/>
				<stop  offset="1" style="stop-color:#4042E2"/>
			</linearGradient>
			<path style="fill:url(#SVGID_00000156581096373769791120000008703149342429196425_);" d="M2349.238,2948.82
				c-3.211,1.83-1.887,6.732,1.809,6.694c28.858-0.29,93.522-1.203,99.268-3.593c7.418-3.085-2.704-29.742-13.356-38.765
				l-58.819,19.197L2349.238,2948.82z"/>
			
				<linearGradient id="SVGID_00000152946428824759312350000003556828963468985250_" gradientUnits="userSpaceOnUse" x1="400.3662" y1="2740.939" x2="506.3445" y2="2740.939" gradientTransform="matrix(1 0 0 1 1930.6143 0)">
				<stop  offset="0" style="stop-color:#FEBBBA"/>
				<stop  offset="1" style="stop-color:#FF928E"/>
			</linearGradient>
			<path style="fill:url(#SVGID_00000152946428824759312350000003556828963468985250_);" d="M2330.98,2544.776
				c0,0,63.265,306.057,81.162,365.758l-42.338,26.569c0,0,21.216-3.608,36.949-4.749c15.733-1.14,30.204-19.197,30.204-19.197
				l-5.072-8.09c0,0-15.865-304.39-12.003-338.954L2330.98,2544.776z"/>
			
				<linearGradient id="SVGID_00000089551480344043278380000015587607043159835798_" gradientUnits="userSpaceOnUse" x1="172.0697" y1="1945.8214" x2="379.5417" y2="1945.8214" gradientTransform="matrix(1 0 0 1 1930.6143 0)">
				<stop  offset="0" style="stop-color:#FEBBBA"/>
				<stop  offset="1" style="stop-color:#FF928E"/>
			</linearGradient>
			<path style="fill:url(#SVGID_00000089551480344043278380000015587607043159835798_);" d="M2173.933,1830.897
				c0,0-8.727,159.208,136.223,240.563l-34.898,79.59c0,0-131.232-79.376-126.379-295.865c0.139-6.213-2.102-12.246-6.159-16.953
				l-27.891-32.357c-10.626-12.328-14.598-29.051-10.647-44.841l3.671-14.675c1.229-4.913,6.825-7.277,11.204-4.733l2.917,1.694
				c9.285,5.393,16.64,13.568,21.025,23.37l13.695,30.614c5.115,11.436,16.911,18.379,29.392,17.301l8.468-0.731L2173.933,1830.897z
				"/>
			
				<linearGradient id="SVGID_00000144312343586773117130000016568338841497798327_" gradientUnits="userSpaceOnUse" x1="2758.9744" y1="2029.1168" x2="2368.2207" y2="2176.2834">
				<stop  offset="0" style="stop-color:#FF928E"/>
				<stop  offset="1" style="stop-color:#FE7062"/>
			</linearGradient>
			<path style="fill:url(#SVGID_00000144312343586773117130000016568338841497798327_);" d="M2305.111,2059.53
				c24.25,6.725,106.404,28.336,157.692,27.453l-31.49,177.7l2.506,28.984l-102.67-0.46c0,0-28.902-67.123-51.705-100.587
				c-6.586-9.665-1.685-21.193,2.048-32.277l-5.128-3.415c-5.219-3.474-7.482-10.001-5.534-15.96l25.002-76.495
				C2297.13,2060.618,2301.19,2058.443,2305.111,2059.53z"/>
			
				<linearGradient id="SVGID_00000181081452888272896300000000940690655960650666_" gradientUnits="userSpaceOnUse" x1="306.7976" y1="2262.1738" x2="646.67" y2="2645.4744" gradientTransform="matrix(1 0 0 1 1930.6143 0)">
				<stop  offset="0" style="stop-color:#09005D"/>
				<stop  offset="1" style="stop-color:#1A0F91"/>
			</linearGradient>
			<path style="fill:url(#SVGID_00000181081452888272896300000000940690655960650666_);" d="M2322.923,2278.041l2.019,17.559
				c0,0-29.014,86.891,14.508,289.835c0,0,94.258,26.703,171.728-37.194c0,0-21.853-191.549-27.822-200.471
				c-29.73-44.441-49.536-54.102-49.536-54.102l-0.893-19.183C2432.926,2274.485,2350.067,2289.465,2322.923,2278.041z"/>
			
				<linearGradient id="SVGID_00000147191164635703040040000014206759686517873039_" gradientUnits="userSpaceOnUse" x1="432.4939" y1="2047.6804" x2="497.3469" y2="2047.6804" gradientTransform="matrix(1 0 0 1 1930.6143 0)">
				<stop  offset="0" style="stop-color:#FEBBBA"/>
				<stop  offset="1" style="stop-color:#FF928E"/>
			</linearGradient>
			<path style="fill:url(#SVGID_00000147191164635703040040000014206759686517873039_);" d="M2363.113,2073.852
				c-0.36-0.475,21.434-65.801,21.434-65.801l31.219,2.832l12.196,74.108C2427.961,2084.991,2379.035,2094.867,2363.113,2073.852z"
				/>
			
				<linearGradient id="SVGID_00000023983723324176589720000003388156137370587283_" gradientUnits="userSpaceOnUse" x1="535.5656" y1="1963.8716" x2="1007.611" y2="1995.9707" gradientTransform="matrix(1 0 0 1 1930.6143 0)">
				<stop  offset="0" style="stop-color:#FEBBBA"/>
				<stop  offset="1" style="stop-color:#FF928E"/>
			</linearGradient>
			<path style="fill:url(#SVGID_00000023983723324176589720000003388156137370587283_);" d="M2408.292,1905.033
				c-2.082,1.296-66.71,28.005-52.824,95.101c0.821,3.965,3.466,7.326,7.164,8.975c9.484,4.23,29.901,11.473,54.322,8.992
				c33.857-3.441,56.042-62.521,55.099-79.714C2471.108,1921.195,2428.923,1892.186,2408.292,1905.033z"/>
			
				<linearGradient id="SVGID_00000180357903146052252330000002142380325687333766_" gradientUnits="userSpaceOnUse" x1="613.1531" y1="1935.4176" x2="446.9936" y2="2267.7358" gradientTransform="matrix(1 0 0 1 1930.6143 0)">
				<stop  offset="0" style="stop-color:#09005D"/>
				<stop  offset="1" style="stop-color:#1A0F91"/>
			</linearGradient>
			<path style="fill:url(#SVGID_00000180357903146052252330000002142380325687333766_);" d="M2427.961,1878.947
				c-1.699,0.223-37.348,12.639-19.67,38.471c17.679,25.832,24.311,41.039,15.949,52.382c-7.618,10.335-24.493,4.445-23.021,25.946
				c0.295,4.304-1.567,8.482-5.139,10.9c-15.903,10.765-54.7,43.897-16.261,91.149c3.124,3.841,3.768,9.142,1.357,13.467
				c-11.259,20.194-34.907,79.351,50.71,112.166c84.603,32.426,115.149-22.877,123.684-44.982c1.845-4.781,6.553-7.708,11.672-7.466
				c9.296,0.439,22.47-1.107,21.864-13.531c-0.368-7.546-5.076-14.308-10.64-19.729c-5.507-5.366-4.419-14.762,2.266-18.56
				c5.05-2.869,9.519-7.349,11.406-14.338c5.127-18.999-5.109-75.807-59.561-85.434c-4.542-0.803-9.298-5.061-9.96-9.626
				c-0.01-0.068-0.02-0.136-0.032-0.204c-0.73-4.415,0.764-8.929,4.372-11.576c8.694-6.378,19.845-19.219,10.789-39.812
				c-8.032-18.264-23.438-24.425-34.881-26.388c-6.719-1.153-11.136-7.507-9.72-14.175
				C2497.006,1899.436,2493.642,1870.336,2427.961,1878.947z"/>
			<g>
				
					<linearGradient id="SVGID_00000023977077170628870500000005384527811364078257_" gradientUnits="userSpaceOnUse" x1="2637.8816" y1="1417.5305" x2="2022.1167" y2="1809.9958">
					<stop  offset="0" style="stop-color:#FF928E"/>
					<stop  offset="1" style="stop-color:#FE7062"/>
				</linearGradient>
				<path style="fill:url(#SVGID_00000023977077170628870500000005384527811364078257_);" d="M1976.122,1479.454l587.707-3.705
					c13.456-0.085,24.384,10.188,24.281,22.828l-2.473,304.898c-0.103,12.711-11.318,22.854-24.844,22.473l-581.344-16.41
					c-12.913-0.365-23.228-10.221-23.394-22.355l-3.89-284.783C1951.994,1489.834,1962.744,1479.538,1976.122,1479.454z"/>
				<path style="opacity:0.68;fill:#FFFFFF;" d="M2561.532,1807.312l-581.479-16.411c-2.225-0.063-3.993-1.801-4.024-3.953
					l-3.89-284.787c-0.015-1.115,0.412-2.118,1.231-2.901c0.781-0.75,1.781-1.153,2.889-1.16l587.708-3.707
					c1.126,0,2.132,0.395,2.923,1.141c0.826,0.783,1.257,1.787,1.249,2.902l-2.473,304.894
					C2565.646,1805.526,2563.792,1807.312,2561.532,1807.312z M2563.977,1496.301l0.011,1.91l-587.708,3.707l3.568,284.973
					l0.313,0.19l581.426,16.411l2.732-305.085L2563.977,1496.301z"/>
				<path style="opacity:0.85;fill:#FFFFFF;" d="M2063.018,1536.438L2063.018,1536.438c0,9.833,4.617,17.804,10.312,17.804h378.511
					c5.695,0,10.312-7.971,10.312-17.804l0,0c0-9.833-4.616-17.804-10.312-17.804H2073.33
					C2067.635,1518.634,2063.018,1526.605,2063.018,1536.438z"/>
			</g>
			<g style="opacity:0.85;">
				<g>
					<path style="fill:#FFFFFF;" d="M2196.332,1775.49l-20.058-11.788c-2.807-1.661-4.261-4.923-3.617-8.122l3.187-15.773
						c-5.273-5.418-9.836-11.465-13.613-18.043l-16.07-1.256c-3.256-0.282-5.993-2.563-6.809-5.72l-5.845-22.513
						c-0.815-3.163,0.465-6.5,3.184-8.306l13.416-8.905c0.1-7.586,1.144-15.088,3.117-22.389l-10.45-12.222
						c-2.131-2.484-2.449-6.049-0.789-8.878l11.778-20.038c1.655-2.818,4.938-4.279,8.129-3.637l15.777,3.19
						c5.419-5.276,11.468-9.837,18.045-13.614l1.256-16.056c0.256-3.26,2.552-5.999,5.718-6.823l22.503-5.843
						c3.168-0.821,6.513,0.463,8.316,3.181l8.906,13.416c7.582,0.095,15.089,1.14,22.388,3.118l12.22-10.447
						c2.484-2.134,6.049-2.453,8.881-0.794l20.038,11.779c2.821,1.654,4.283,4.921,3.636,8.134l-3.187,15.773
						c5.276,5.419,9.838,11.468,13.614,18.043l16.042,1.255c3.258,0.207,6.009,2.544,6.837,5.719l5.842,22.504
						c0.822,3.164-0.457,6.507-3.181,8.316l-13.417,8.908c-0.099,7.583-1.144,15.085-3.116,22.386l10.452,12.228
						c2.13,2.484,2.445,6.052,0.787,8.872l-11.782,20.046c-1.665,2.828-4.926,4.242-8.129,3.628l-15.773-3.186
						c-5.419,5.273-11.467,9.837-18.045,13.613l-1.255,16.053c-0.256,3.26-2.553,6.002-5.719,6.826l-22.5,5.837
						c-3.159,0.822-6.5-0.451-8.321-3.176l-8.905-13.416c-7.583-0.101-15.086-1.142-22.387-3.118l-12.234,10.459
						c-1.754,1.497-4.045,2.093-6.234,1.731C2198.054,1776.292,2197.161,1775.976,2196.332,1775.49z M2217.777,1751.699
						c8.137,2.529,16.597,3.707,25.146,3.501l3.353-0.081l10.805,16.277l16.316-4.234l1.523-19.48l2.969-1.561
						c7.571-3.982,14.389-9.126,20.265-15.292l2.314-2.426l19.141,3.866l8.539-14.528l-12.688-14.844l0.996-3.204
						c2.528-8.132,3.706-16.593,3.501-25.143l-0.081-3.351l16.278-10.808l-4.234-16.313l-19.48-1.525l-1.561-2.968
						c-3.978-7.568-9.122-14.387-15.289-20.266l-2.427-2.314l3.867-19.141l-14.53-8.541l-14.844,12.69l-3.204-0.996
						c-8.135-2.535-16.594-3.71-25.141-3.501l-3.354,0.081l-10.808-16.281l-16.313,4.237l-1.523,19.479l-2.969,1.56
						c-7.571,3.982-14.389,9.126-20.267,15.292l-2.314,2.427l-19.138-3.868l-8.542,14.531l12.69,14.841l-0.996,3.204
						c-2.528,8.132-3.705,16.593-3.501,25.143l0.081,3.352l-16.28,10.81l4.238,16.314l19.478,1.525l1.562,2.968
						c3.983,7.572,9.126,14.391,15.29,20.266l2.427,2.314l-3.867,19.141l14.531,8.541l14.841-12.687L2217.777,1751.699z
						 M2322.764,1732.91c-0.011-0.005-0.022-0.007-0.033-0.009L2322.764,1732.91z M2152.013,1632.557
						c-0.003-0.004-0.006-0.007-0.006-0.007L2152.013,1632.557z M2159.493,1619.815L2159.493,1619.815L2159.493,1619.815
						L2159.493,1619.815z M2335.092,1644.327c0.005,0.001,0.01,0.002,0.015,0L2335.092,1644.327z M2223.382,1578.658l-0.006-0.007
						C2223.378,1578.652,2223.38,1578.655,2223.382,1578.658z M2284.913,1587.262c0.005-0.005,0.01-0.008,0.015-0.013
						L2284.913,1587.262z M2210.096,1729.876c-9.716-5.713-17.69-13.935-23.06-23.778c-1.607-2.948-0.521-6.639,2.425-8.245
						c2.946-1.606,6.638-0.521,8.244,2.423c4.315,7.915,10.73,14.527,18.55,19.124c11.52,6.772,24.985,8.653,37.918,5.292
						c12.932-3.358,23.783-11.55,30.554-23.068c6.77-11.518,8.65-24.984,5.293-37.917c-3.358-12.933-11.551-23.783-23.069-30.555
						c-11.52-6.772-24.984-8.653-37.918-5.293c-12.933,3.358-23.783,11.55-30.554,23.068c-1.811,3.084-3.292,6.349-4.402,9.705
						c-1.052,3.185-4.49,4.93-7.676,3.862c-3.187-1.053-4.916-4.487-3.863-7.675c1.378-4.172,3.216-8.226,5.463-12.05
						c8.416-14.317,21.903-24.5,37.978-28.674c16.076-4.177,32.812-1.836,47.129,6.58c14.318,8.416,24.501,21.902,28.674,37.977
						c4.173,16.075,1.836,32.813-6.579,47.129c-8.416,14.317-21.903,24.5-37.978,28.674c-8.547,2.221-17.281,2.597-25.74,1.2
						C2224.037,1736.425,2216.8,1733.816,2210.096,1729.876z"/>
					<path style="fill:#FFFFFF;" d="M2222.349,1695.382c-5.08-5.013-7.905-11.705-7.953-18.844
						c-0.048-7.138,2.686-13.865,7.699-18.946l0,0.003c5.013-5.081,11.704-7.906,18.841-7.954
						c7.136-0.051,13.865,2.687,18.947,7.698c10.487,10.348,10.602,27.298,0.254,37.79c-6.331,6.415-15.132,8.949-23.412,7.578
						C2231.468,1701.838,2226.421,1699.399,2222.349,1695.382z M2241.018,1661.792c-3.891,0.028-7.539,1.567-10.272,4.336l0,0.003
						c-2.732,2.766-4.222,6.436-4.197,10.328c0.027,3.89,1.566,7.539,4.336,10.27c5.719,5.645,14.959,5.578,20.6-0.136
						c5.642-5.72,5.579-14.96-0.138-20.602c-2.167-2.139-4.884-3.516-7.826-4.003
						C2242.701,1661.854,2241.865,1661.787,2241.018,1661.792z"/>
				</g>
				<g>
					<path style="fill:#FFFFFF;" d="M2406.341,1700.939l-1.98-6.601c-3.028-1.029-5.93-2.369-8.671-4.01l-6.309,2.762
						c-2.084,0.913-4.515,0.4-6.051-1.27l-7.585-8.23c-1.533-1.673-1.84-4.132-0.766-6.123l3.267-6.064
						c-1.411-2.861-2.512-5.865-3.291-8.967l-6.424-2.514c-2.11-0.827-3.466-2.906-3.375-5.171l0.456-11.178
						c0.094-2.255,1.607-4.212,3.79-4.88l6.601-1.98c1.028-3.03,2.37-5.933,4.009-8.672l-2.758-6.302
						c-0.914-2.079-0.407-4.512,1.265-6.055l8.239-7.595c1.671-1.526,4.127-1.827,6.115-0.755l6.064,3.266
						c2.865-1.412,5.867-2.513,8.97-3.291l2.511-6.421c0.824-2.104,2.896-3.461,5.174-3.376l11.151,0.453
						c2.271,0.114,4.241,1.6,4.903,3.79l1.979,6.603c3.03,1.027,5.931,2.369,8.673,4.01l6.275-2.746
						c2.074-0.93,4.511-0.434,6.083,1.252l7.581,8.226c1.537,1.67,1.846,4.133,0.77,6.127l-3.266,6.064
						c1.412,2.865,2.512,5.867,3.291,8.97l6.423,2.514c2.113,0.83,3.469,2.91,3.375,5.171l-0.455,11.172
						c-0.092,2.276-1.622,4.24-3.789,4.883l-6.602,1.98c-1.027,3.03-2.369,5.933-4.009,8.672l2.759,6.302
						c0.919,2.092,0.404,4.53-1.266,6.055l-8.22,7.577c-1.673,1.543-4.139,1.848-6.134,0.773l-6.064-3.266
						c-2.865,1.412-5.867,2.513-8.97,3.291l-2.51,6.421c-0.831,2.124-2.919,3.481-5.172,3.377l-11.195-0.454
						c-0.213-0.008-0.422-0.031-0.628-0.065C2408.584,1704.335,2406.925,1702.897,2406.341,1700.939z M2415.074,1698.328
						l-0.003-0.009L2415.074,1698.328z M2423.393,1687.46l2.471-0.473c3.861-0.739,7.552-2.094,10.966-4.023l2.189-1.238
						l8.036,4.329l4.246-3.915l-3.659-8.364l1.411-2.079c2.199-3.242,3.848-6.81,4.902-10.603l0.673-2.424l8.749-2.623l0.235-5.771
						l-8.508-3.324l-0.473-2.472c-0.741-3.866-2.094-7.557-4.022-10.967l-1.238-2.189l4.329-8.036l-3.913-4.246l-8.365,3.661
						l-2.082-1.411c-3.245-2.205-6.811-3.853-10.598-4.902l-2.427-0.672l-2.623-8.752l-5.771-0.235l-3.327,8.505l-2.471,0.473
						c-3.861,0.74-7.552,2.094-10.966,4.023l-2.189,1.238l-8.036-4.329l-4.246,3.915l3.661,8.364l-1.412,2.082
						c-2.2,3.242-3.848,6.807-4.901,10.6l-0.673,2.424l-8.75,2.623l-0.236,5.774l8.507,3.324l0.473,2.472
						c0.741,3.863,2.095,7.555,4.023,10.964l1.238,2.19l-4.329,8.036l3.914,4.249l8.362-3.662l2.081,1.411
						c3.247,2.199,6.814,3.85,10.604,4.903l2.423,0.674l2.624,8.749l5.771,0.235L2423.393,1687.46z M2422.753,1696.075l0.035,0.003
						C2422.777,1696.076,2422.764,1696.077,2422.753,1696.075z M2449.444,1687.339c-0.004-0.001-0.009-0.004-0.013-0.008
						L2449.444,1687.339z M2452.386,1684.616l-0.005-0.01L2452.386,1684.616z M2453.28,1680.316l0.028-0.026
						C2453.297,1680.301,2453.288,1680.309,2453.28,1680.316z M2465.957,1655.272l0.027-0.008
						C2465.974,1655.266,2465.965,1655.271,2465.957,1655.272z M2385.606,1618.088l-0.005-0.01L2385.606,1618.088z
						 M2390.683,1611.342l0.03,0.005L2390.683,1611.342z M2452.208,1617.981c0.018-0.009,0.036-0.015,0.054-0.024L2452.208,1617.981
						z M2426.359,1607.074c0.011-0.001,0.022,0.001,0.034,0L2426.359,1607.074z M2396.039,1672.752
						c-3.875-4.204-6.534-9.371-7.689-14.942c-0.511-2.466,1.073-4.878,3.537-5.388c2.464-0.507,4.876,1.076,5.388,3.536
						c0.819,3.955,2.709,7.626,5.467,10.617c4.058,4.406,9.585,6.97,15.575,7.207c5.985,0.243,11.706-1.858,16.111-5.918
						c9.091-8.377,9.671-22.593,1.291-31.685c-4.06-4.403-9.587-6.961-15.575-7.207c-5.985-0.243-11.706,1.858-16.11,5.918
						c-1.181,1.089-2.242,2.297-3.152,3.59c-1.448,2.055-4.293,2.551-6.35,1.101c-2.059-1.446-2.552-4.289-1.104-6.35
						c1.281-1.818,2.772-3.518,4.428-5.046c6.194-5.707,14.241-8.663,22.659-8.322c8.417,0.335,16.198,3.942,21.907,10.139
						c11.786,12.788,10.971,32.779-1.816,44.566c-6.194,5.707-14.241,8.663-22.659,8.322c-1.325-0.053-2.633-0.189-3.921-0.401
						C2407.131,1681.351,2400.849,1677.973,2396.039,1672.752z"/>
				</g>
			</g>
		</g>
		<g>
			<g>
				
					<linearGradient id="SVGID_00000049937683681740890210000011049732345302683019_" gradientUnits="userSpaceOnUse" x1="921.7157" y1="758.8228" x2="1055.0579" y2="758.8228" gradientTransform="matrix(1 -0.0054 0.0054 1 -26.5016 -7.9479)">
					<stop  offset="0" style="stop-color:#4F52FF"/>
					<stop  offset="1" style="stop-color:#4042E2"/>
				</linearGradient>
				<path style="fill:url(#SVGID_00000049937683681740890210000011049732345302683019_);" d="M1032.727,780.607
					c0.037-1.242,0.07-2.381,0.095-3.37c0.073-2.788-1.071-5.45-3.156-7.303c-12.219-10.852-57.961-48.054-122.38-59.372
					c-3.472-0.609-6.471,0.974-8.146,3.458c5.368,0.621,12.565,1.951,22.266,4.443
					C953.262,726.648,999.635,748.634,1032.727,780.607z"/>
				
					<linearGradient id="SVGID_00000078019828747441769160000002288040633282545032_" gradientUnits="userSpaceOnUse" x1="920.2711" y1="782.7593" x2="1054.9395" y2="782.7593" gradientTransform="matrix(1 -0.0054 0.0054 1 -26.5016 -7.9479)">
					<stop  offset="0" style="stop-color:#09005D"/>
					<stop  offset="1" style="stop-color:#1A0F91"/>
				</linearGradient>
				<path style="fill:url(#SVGID_00000078019828747441769160000002288040633282545032_);" d="M921.405,718.464
					c-9.701-2.492-16.898-3.822-22.266-4.443c-1.685,2.5-2.03,5.912-0.159,8.925c1.053,1.696,2.347,3.53,3.935,5.497
					c10.141,12.556,91.992,95.632,91.992,95.632s25.86,3.013,33.734-1.608c2.553-1.498,3.678-28.329,4.085-41.86
					C999.635,748.634,953.262,726.648,921.405,718.464z"/>
			</g>
			
				<linearGradient id="SVGID_00000106112335724282277670000013398710454951347363_" gradientUnits="userSpaceOnUse" x1="1019.8631" y1="785.5179" x2="1055.0281" y2="1026.1211" gradientTransform="matrix(1 -0.0054 0.0054 1 -26.5016 -7.9479)">
				<stop  offset="0" style="stop-color:#FEBBBA"/>
				<stop  offset="1" style="stop-color:#FF928E"/>
			</linearGradient>
			<path style="fill:url(#SVGID_00000106112335724282277670000013398710454951347363_);" d="M1030.101,867.369l-0.27-49.744
				c-0.023-4.213-2.718-7.983-6.737-9.248c-6.184-1.948-15.686-3.751-24.3-0.47c-5.054,1.925-8.431,6.748-8.832,12.14l-3.455,46.478
				L1030.101,867.369z"/>
			<g>
				
					<linearGradient id="SVGID_00000066511091842715589600000009821691115972382881_" gradientUnits="userSpaceOnUse" x1="703.4902" y1="869.9775" x2="862.3185" y2="869.9775" gradientTransform="matrix(1 -0.0054 0.0054 1 -26.5016 -7.9479)">
					<stop  offset="0" style="stop-color:#09005D"/>
					<stop  offset="1" style="stop-color:#1A0F91"/>
				</linearGradient>
				<path style="fill:url(#SVGID_00000066511091842715589600000009821691115972382881_);" d="M832.582,824.392
					c-0.605-1.956-1.764-3.588-3.243-4.805c-10.428,2.118-32.143,7.988-76.609,23.96c-51.549,18.516-66.581,34.523-70.891,43.063
					c22.165,6.359,72.514,15.994,144.586,1.502l14.219-6.76C840.644,881.351,839.456,846.596,832.582,824.392z"/>
				
					<linearGradient id="SVGID_00000158007750221384546700000002448856859736582530_" gradientUnits="userSpaceOnUse" x1="696.7306" y1="864.0684" x2="851.3473" y2="864.0684" gradientTransform="matrix(1 -0.0054 0.0054 1 -26.5016 -7.9479)">
					<stop  offset="0" style="stop-color:#4F52FF"/>
					<stop  offset="1" style="stop-color:#4042E2"/>
				</linearGradient>
				<path style="fill:url(#SVGID_00000158007750221384546700000002448856859736582530_);" d="M752.73,843.547
					c44.466-15.972,66.181-21.842,76.609-23.96c-2.307-1.897-5.411-2.761-8.533-2.094c-25.621,5.477-103.027,24.141-143.354,57.198
					c-4.026,3.3-2.807,9.763,2.177,11.268c0.701,0.211,1.442,0.429,2.211,0.65C686.149,878.07,701.181,862.063,752.73,843.547z"/>
			</g>
			
				<linearGradient id="SVGID_00000106107503096749066700000000579726180470237330_" gradientUnits="userSpaceOnUse" x1="842.6911" y1="811.4153" x2="877.8563" y2="1052.02" gradientTransform="matrix(1 -0.0054 0.0054 1 -26.5016 -7.9479)">
				<stop  offset="0" style="stop-color:#FEBBBA"/>
				<stop  offset="1" style="stop-color:#FF928E"/>
			</linearGradient>
			<path style="fill:url(#SVGID_00000106107503096749066700000000579726180470237330_);" d="M867.502,911.25l-30.554-36.213
				c-2.975-3.526-7.791-4.901-12.166-3.438c-4.849,1.622-11.288,4.949-17.499,11.775c-2.897,3.184-3.444,7.88-1.45,11.694
				l22.315,42.676L867.502,911.25z"/>
			
				<linearGradient id="SVGID_00000176016243884960006520000006854784412183784889_" gradientUnits="userSpaceOnUse" x1="1095.0593" y1="670.6772" x2="996.9669" y2="1222.218" gradientTransform="matrix(1 -0.0054 0.0054 1 -26.5016 -7.9479)">
				<stop  offset="0" style="stop-color:#4F52FF"/>
				<stop  offset="1" style="stop-color:#4042E2"/>
			</linearGradient>
			<path style="fill:url(#SVGID_00000176016243884960006520000006854784412183784889_);" d="M979.768,850.323
				c0,0,37.005-7.313,57.6-0.312c0,0,27.973,162.444,23.6,214.749l-79.947,16.701C981.021,1081.461,977.755,898.284,979.768,850.323
				z"/>
			
				<linearGradient id="SVGID_00000018930940238284404080000011828385212215386288_" gradientUnits="userSpaceOnUse" x1="1061.0438" y1="954.481" x2="1260.9274" y2="1344.9937" gradientTransform="matrix(1 -0.0054 0.0054 1 -26.5016 -7.9479)">
				<stop  offset="0" style="stop-color:#4F52FF"/>
				<stop  offset="1" style="stop-color:#4042E2"/>
			</linearGradient>
			<path style="fill:url(#SVGID_00000018930940238284404080000011828385212215386288_);" d="M1309.79,1133.421
				c0,0-261.644,16.113-367.909,9.359c-10.409-0.662-19.672-6.768-24.383-16.073c-23.015-45.454-92.034-181.855-98.094-194.875
				c0,0,27.607-23.319,48.066-26.63c0,0,97.52,107.314,101.872,162.312c0,0,224.132-65.779,246.307-65.288
				c22.175,0.492,90.331,30.46,90.331,30.46L1309.79,1133.421z"/>
			
				<linearGradient id="SVGID_00000101802116535702700550000016787183017725004210_" gradientUnits="userSpaceOnUse" x1="1674.2941" y1="898.8196" x2="1731.8744" y2="898.8196" gradientTransform="matrix(1 -0.0054 0.0054 1 -26.5016 -7.9479)">
				<stop  offset="0" style="stop-color:#FEBBBA"/>
				<stop  offset="1" style="stop-color:#FF928E"/>
			</linearGradient>
			<path style="fill:url(#SVGID_00000101802116535702700550000016787183017725004210_);" d="M1657.566,927.529
				c0,0-9.712-19.911-1.44-30.493c8.273-10.582,38.121-43.355,38.121-43.355l3.368-22.555l12.537,36.642l-26.179,55.524
				C1683.973,923.291,1668.561,940.143,1657.566,927.529z"/>
			
				<linearGradient id="SVGID_00000057839400561658798950000006135303378764420254_" gradientUnits="userSpaceOnUse" x1="1678.9667" y1="991.0344" x2="1746.2157" y2="991.0344" gradientTransform="matrix(1 -0.0054 0.0054 1 -26.5016 -7.9479)">
				<stop  offset="0" style="stop-color:#FEBBBA"/>
				<stop  offset="1" style="stop-color:#FF928E"/>
			</linearGradient>
			<path style="fill:url(#SVGID_00000057839400561658798950000006135303378764420254_);" d="M1725.316,1020.037
				c-9.884-34.026-23.407-66.393-41.343-96.746l-26.407,4.238l13.538,91.552C1681.097,1022.044,1708.349,1028.775,1725.316,1020.037
				z"/>
			
				<linearGradient id="SVGID_00000128486319724141194910000000751582348335036833_" gradientUnits="userSpaceOnUse" x1="1156.2943" y1="804.4678" x2="1572.4436" y2="1119.1168">
				<stop  offset="0" style="stop-color:#FF928E"/>
				<stop  offset="1" style="stop-color:#FE7062"/>
			</linearGradient>
			<path style="fill:url(#SVGID_00000128486319724141194910000000751582348335036833_);" d="M1742.915,1109.158
				c-3.547-30.765-9.292-60.527-17.599-89.121c-16.967,8.738-44.219,2.008-54.212-0.955l3.887,26.289l-10.21-35.376
				c-12.419-43.028-38.541-80.827-74.4-107.656l-24.975-18.686c-24.542-18.362-63.587-11.761-88.426,6.197
				c-55.148,39.87-136.97,106.655-164.904,129.626c-6.006,4.939-14.264,6.08-21.391,2.97l-4.693-2.047
				c-4.435-1.935-9.298,1.67-8.735,6.477l12.502,108.85l190.176-3.225c22.806-0.124,88.853-2.833,99.253-23.128l17.352-43.262
				c41.403,34.827,94.397,58.619,122.759,65.483C1732.371,1134.755,1744.544,1123.291,1742.915,1109.158z"/>
			
				<linearGradient id="SVGID_00000093884905096538103030000004713270966746406822_" gradientUnits="userSpaceOnUse" x1="1678.8802" y1="779.3074" x2="1581.7556" y2="957.3688" gradientTransform="matrix(1 -0.0054 0.0054 1 -26.5016 -7.9479)">
				<stop  offset="0" style="stop-color:#FEBBBA"/>
				<stop  offset="1" style="stop-color:#FF928E"/>
			</linearGradient>
			<path style="fill:url(#SVGID_00000093884905096538103030000004713270966746406822_);" d="M1607.794,824.995l-58.159,57.112
				c-3.878,3.807-4.21,9.99-0.694,14.133c18.15,21.39,33.688,32.574,46.56,33.353c5.46,0.33,10.613-2.579,13.518-7.214l30.812-49.17
				L1607.794,824.995z"/>
			
				<linearGradient id="SVGID_00000007430712419134875520000001695301400802873482_" gradientUnits="userSpaceOnUse" x1="1867.7628" y1="1080.5441" x2="1617.2064" y2="1288.7625" gradientTransform="matrix(1 -0.0054 0.0054 1 -26.5016 -7.9479)">
				<stop  offset="0" style="stop-color:#FEBBBA"/>
				<stop  offset="1" style="stop-color:#FF928E"/>
			</linearGradient>
			<polygon style="fill:url(#SVGID_00000007430712419134875520000001695301400802873482_);" points="1727.317,1104.218 
				1777.508,1084.372 1836.232,1130.568 1731.53,1131.526 			"/>
			<g>
				
					<linearGradient id="SVGID_00000056407992409419312550000003349776555922734215_" gradientUnits="userSpaceOnUse" x1="1686.8757" y1="888.1981" x2="1653.5413" y2="778.2527" gradientTransform="matrix(1 -0.0054 0.0054 1 -26.5016 -7.9479)">
					<stop  offset="0" style="stop-color:#FEBBBA"/>
					<stop  offset="1" style="stop-color:#FF928E"/>
				</linearGradient>
				<path style="fill:url(#SVGID_00000056407992409419312550000003349776555922734215_);" d="M1705.761,811.331
					c0,0-7.674,56.144-29.131,73.514c-21.457,17.369-63.515,4.606-77.926-37.61l27.865-72.467L1705.761,811.331z"/>
				
					<linearGradient id="SVGID_00000101075676978197078580000012394889388079707023_" gradientUnits="userSpaceOnUse" x1="1656.7938" y1="686.3201" x2="1687.7863" y2="863.0917" gradientTransform="matrix(1 -0.0054 0.0054 1 -26.5016 -7.9479)">
					<stop  offset="0" style="stop-color:#09005D"/>
					<stop  offset="1" style="stop-color:#1A0F91"/>
				</linearGradient>
				<path style="fill:url(#SVGID_00000101075676978197078580000012394889388079707023_);" d="M1623.639,821.58
					c1.642,0.519,3.353-0.54,3.599-2.245c0.75-5.183,2.636-15.443,6.53-22.445c0,0-2.097-7.349,18.621,3.658
					c20.718,11.007,51.835,27.172,70.05,17.347c17.759-9.579,35.541-57.4-11.481-48.303c-1.789,0.346-3.443-1.072-3.319-2.89
					c0.536-7.847-0.341-25.888-18.645-31.58c-17.129-5.327-26.449,2.442-30.282,7.123c-1.127,1.377-3.234,1.361-4.324-0.046
					c-5.159-6.66-19.147-20.819-39.578-11.683c-16.828,7.525-19.395,17.929-19.082,24.402c0.102,2.097-2.02,3.53-3.931,2.662
					c-5.179-2.351-13.496-3.542-21.401,6.474c-10.93,13.847,4.861,25.719,9.596,28.828c0.776,0.51,1.261,1.358,1.271,2.286
					c0.083,7.17,1.369,38.442,17.141,56c1.366,1.52,3.872,1.059,4.653-0.83l11.914-28.823c0.553-1.339,2.039-2.031,3.42-1.595
					L1623.639,821.58z"/>
				
					<linearGradient id="SVGID_00000145751077667499416760000012042426989728381887_" gradientUnits="userSpaceOnUse" x1="1652.3479" y1="898.6671" x2="1619.0134" y2="788.7219" gradientTransform="matrix(1 -0.0054 0.0054 1 -26.5016 -7.9479)">
					<stop  offset="0" style="stop-color:#FEBBBA"/>
					<stop  offset="1" style="stop-color:#FF928E"/>
				</linearGradient>
				<path style="fill:url(#SVGID_00000145751077667499416760000012042426989728381887_);" d="M1623.926,827.417
					c0,0-7.534-29.98-18.677-20.173c-11.144,9.807,3.088,31.184,15.936,35.203L1623.926,827.417z"/>
			</g>
			
				<linearGradient id="SVGID_00000003065301511670775420000009539295722673109155_" gradientUnits="userSpaceOnUse" x1="1568.9084" y1="1160.4581" x2="1462.8976" y2="813.1032">
				<stop  offset="0" style="stop-color:#FF928E"/>
				<stop  offset="1" style="stop-color:#FE7062"/>
			</linearGradient>
			<path style="fill:url(#SVGID_00000003065301511670775420000009539295722673109155_);" d="M1540.41,954.509
				c0,0,1.877-69.466-26.662-70.706c-35.44-1.541-92.249,24.445-57.796,126.053c19.035,56.136,47.486,97.712,125.074,114.97
				c3.617-28.519,16.426-48.448,25.914-59.699C1575.248,1043.051,1548.313,1008.53,1540.41,954.509z"/>
			
				<linearGradient id="SVGID_00000126314796725843760700000004788121136498665404_" gradientUnits="userSpaceOnUse" x1="1613.4078" y1="628.2909" x2="1550.9713" y2="1088.4727" gradientTransform="matrix(1 -0.0054 0.0054 1 -26.5016 -7.9479)">
				<stop  offset="0" style="stop-color:#E1473D"/>
				<stop  offset="1" style="stop-color:#E9605A"/>
			</linearGradient>
			<path style="fill:url(#SVGID_00000126314796725843760700000004788121136498665404_);" d="M1603.385,1065.344
				c-0.552,0.003-1.111-0.16-1.599-0.498c-36.494-25.421-56.87-60.355-64.123-109.934c-0.023-0.157-0.032-0.317-0.028-0.477
				c0.496-18.564-2.849-66.938-24.007-67.859c-10.229-0.436-20.948,1.542-30.181,5.599c-1.405,0.615-3.042-0.021-3.658-1.425
				c-0.617-1.404,0.021-3.042,1.425-3.66c9.995-4.392,21.594-6.524,32.656-6.063c30.316,1.319,29.443,67.963,29.322,73.312
				c7.046,47.834,26.678,81.507,61.768,105.951c1.259,0.877,1.568,2.608,0.692,3.865
				C1605.115,1064.926,1604.258,1065.34,1603.385,1065.344z"/>
			
				<linearGradient id="SVGID_00000176733103034287035610000008919028937517107625_" gradientUnits="userSpaceOnUse" x1="1532.8975" y1="791.1295" x2="1519.0231" y2="1177.3107" gradientTransform="matrix(1 -0.0054 0.0054 1 -26.5016 -7.9479)">
				<stop  offset="0" style="stop-color:#E1473D"/>
				<stop  offset="1" style="stop-color:#E9605A"/>
			</linearGradient>
			<path style="fill:url(#SVGID_00000176733103034287035610000008919028937517107625_);" d="M1556.338,1120.756
				c-0.3,0.002-0.606-0.045-0.906-0.147c-64.405-21.836-87.138-65.708-102.109-109.861c-3.39-10.002-6.018-19.64-7.811-28.65
				c-0.299-1.503,0.677-2.964,2.18-3.262c1.506-0.301,2.966,0.678,3.265,2.181c1.746,8.772,4.312,18.174,7.624,27.947
				c14.515,42.807,36.51,85.325,98.634,106.388c1.453,0.494,2.23,2.067,1.738,3.521
				C1558.562,1120.023,1557.49,1120.75,1556.338,1120.756z"/>
			
				<linearGradient id="SVGID_00000080168798258628116450000012119625473872072863_" gradientUnits="userSpaceOnUse" x1="1814.144" y1="1016.0246" x2="1563.5884" y2="1224.2424" gradientTransform="matrix(1 -0.0054 0.0054 1 -26.5016 -7.9479)">
				<stop  offset="0" style="stop-color:#FEBBBA"/>
				<stop  offset="1" style="stop-color:#FF928E"/>
			</linearGradient>
			<path style="fill:url(#SVGID_00000080168798258628116450000012119625473872072863_);" d="M1741.699,1131.081l-0.265-26.939
				c0,0-75.498,2.081-134.495-39.015c-9.488,11.251-22.296,31.18-25.914,59.699
				C1620.286,1133.558,1672.114,1136.072,1741.699,1131.081z"/>
			<g>
				
					<linearGradient id="SVGID_00000114053520184881756940000004461776570411190707_" gradientUnits="userSpaceOnUse" x1="-7450.3687" y1="781.9721" x2="-7643.8604" y2="835.0031" gradientTransform="matrix(-0.9991 -0.044 -0.044 0.9991 -5805.3887 -31.6704)">
					<stop  offset="0" style="stop-color:#09005D"/>
					<stop  offset="1" style="stop-color:#1A0F91"/>
				</linearGradient>
				<path style="fill:url(#SVGID_00000114053520184881756940000004461776570411190707_);" d="M1644.958,1141.005
					c0.183,0.008,0.368,0.012,0.552,0.01l240.159-1.564c5.937-0.037,10.718-4.881,10.68-10.818c-0.038-5.939-4.9-10.819-10.82-10.68
					l-240.16,1.564c-5.937,0.037-10.718,4.881-10.68,10.818C1634.729,1136.087,1639.277,1140.755,1644.958,1141.005z"/>
				
					<linearGradient id="SVGID_00000079455081310626958050000008587748741445006270_" gradientUnits="userSpaceOnUse" x1="-7706.2393" y1="969.2613" x2="-7843.5352" y2="1114.3749" gradientTransform="matrix(-1 0.0054 0.0054 1 -5846.3911 23.3453)">
					<stop  offset="0" style="stop-color:#09005D"/>
					<stop  offset="1" style="stop-color:#1A0F91"/>
				</linearGradient>
				<path style="fill:url(#SVGID_00000079455081310626958050000008587748741445006270_);" d="M2100.384,920.48l-200.008,1.084
					c-14.755,0.08-28.138,8.667-34.359,22.046l-91.4,196.564l248.556-1.347c9.508-0.051,18.02-5.907,21.467-14.769l70.718-181.816
					C2119.443,931.737,2111.656,920.419,2100.384,920.48z"/>
				<path style="fill:#91B3FA;" d="M1960.022,1021.771c-4.262,13.489-0.989,26.55,7.31,29.171
					c8.299,2.622,18.48-6.188,22.742-19.678c4.261-13.489,0.988-26.549-7.31-29.171
					C1974.464,999.471,1964.283,1008.282,1960.022,1021.771z"/>
			</g>
		</g>
	</g>
</g>
</svg>
