<svg width="207" height="127" viewBox="0 0 207 127" fill="none" xmlns="http://www.w3.org/2000/svg">
<rect x="0.905273" y="0.810425" width="205.499" height="125.834" rx="4.52641" fill="url(#paint0_linear_9198_2)"/>
<path d="M134.045 43.8288H132.378V42.1617C132.378 38.2369 129.185 35.044 125.26 35.044H74.1693C70.2446 35.044 67.0516 38.237 67.0516 42.1617V75.6021C67.0516 79.5268 70.2447 82.7198 74.1693 82.7198H75.8365V84.387C75.8365 88.3117 79.0295 91.5046 82.9542 91.5046H134.045C137.969 91.5046 141.162 88.3117 141.162 84.387V50.9465C141.162 47.0218 137.97 43.8288 134.045 43.8288ZM135.918 84.3868C135.918 85.4213 135.079 86.2599 134.045 86.2599H82.9542C81.9197 86.2599 81.0811 85.4213 81.0811 84.3868V82.7197V80.0974V77.4751V50.9465C81.0811 49.9119 81.9197 49.0734 82.9542 49.0734H127.133H129.755H132.378H134.045C135.079 49.0734 135.918 49.912 135.918 50.9465V84.3868H135.918ZM72.2962 75.602V42.1617C72.2962 41.1272 73.1348 40.2886 74.1693 40.2886H125.26C126.294 40.2886 127.133 41.1272 127.133 42.1617V43.8288H82.9542C79.0295 43.8288 75.8365 47.0219 75.8365 50.9465V77.4751H74.1694C73.1348 77.4751 72.2962 76.6365 72.2962 75.602Z" fill="#702DFF"/>
<path d="M134.045 91.5664H82.9546C78.9962 91.5664 75.7757 88.3459 75.7757 84.3875V82.7816H74.1699C70.2114 82.7816 66.991 79.5611 66.991 75.6027V42.1623C66.991 38.2039 70.2114 34.9835 74.1699 34.9835H125.261C129.219 34.9835 132.439 38.2039 132.439 42.1623V43.7683H134.045C138.004 43.7683 141.224 46.9888 141.224 50.9472V84.3875C141.224 88.3459 138.004 91.5664 134.045 91.5664ZM74.1699 35.1058C70.2789 35.1058 67.1134 38.2714 67.1134 42.1623V75.6028C67.1134 79.4937 70.2789 82.6593 74.1699 82.6593H75.8982V84.3876C75.8982 88.2785 79.0637 91.4441 82.9547 91.4441H134.045C137.936 91.4441 141.102 88.2786 141.102 84.3876V50.9472C141.102 47.0562 137.936 43.8907 134.045 43.8907H132.317V42.1623C132.317 38.2714 129.152 35.1059 125.261 35.1059H74.1699V35.1058ZM134.045 86.3218H82.9547C81.8882 86.3218 81.0204 85.4541 81.0204 84.3875V50.9472C81.0204 49.8806 81.8882 49.0129 82.9547 49.0129H134.045C135.112 49.0129 135.98 49.8806 135.98 50.9472V84.3875C135.98 85.4541 135.112 86.3218 134.045 86.3218ZM82.9547 49.1353C81.9556 49.1353 81.1428 49.9482 81.1428 50.9472V84.3875C81.1428 85.3866 81.9556 86.1994 82.9547 86.1994H134.045C135.044 86.1994 135.857 85.3866 135.857 84.3875V50.9472C135.857 49.9481 135.044 49.1353 134.045 49.1353H82.9547ZM75.8982 77.537H74.17C73.1034 77.537 72.2356 76.6692 72.2356 75.6027V42.1623C72.2356 41.0958 73.1033 40.2281 74.1699 40.2281H125.261C126.327 40.2281 127.195 41.0958 127.195 42.1623V43.8907H82.9547C79.0637 43.8907 75.8982 47.0562 75.8982 50.9472V77.537V77.537ZM74.1699 40.3504C73.1708 40.3504 72.358 41.1631 72.358 42.1622V75.6027C72.358 76.6017 73.1709 77.4145 74.17 77.4145H75.7759V50.9472C75.7759 46.9888 78.9964 43.7683 82.9548 43.7683H127.072V42.1623C127.072 41.1633 126.26 40.3505 125.261 40.3505H74.1699V40.3504Z" fill="#702DFF"/>
<path d="M128.451 78.4935L126.726 76.7678L118.37 68.4121C117.638 67.6805 116.452 67.6805 115.721 68.4121L110.973 73.1599L102.103 64.2903C101.372 63.5587 100.186 63.5587 99.4545 64.2903L86.2697 77.4751L85.2511 78.4935C84.814 78.9306 84.6384 79.5297 84.7235 80.0974C84.7809 80.4799 84.9565 80.8481 85.2511 81.1425L86.3108 82.2021C86.59 82.4814 86.9356 82.6536 87.2968 82.7197C87.5205 82.7606 87.75 82.7606 87.9735 82.7197C88.3348 82.6537 88.6804 82.4815 88.9597 82.2021L91.0644 80.0974L93.6867 77.4751L99.4544 71.7074C100.186 70.9758 101.372 70.9758 102.103 71.7074L107.871 77.4751L110.493 80.0974L112.598 82.2021C112.877 82.4814 113.223 82.6536 113.584 82.7197C113.808 82.7606 114.037 82.7606 114.261 82.7197C114.622 82.6537 114.967 82.4815 115.247 82.2021L116.307 81.1425C116.601 80.848 116.777 80.4799 116.834 80.0974C116.919 79.5297 116.744 78.9307 116.307 78.4935L115.288 77.4751L114.682 76.8686L117.045 74.5048L120.016 77.4751L122.638 80.0974L124.743 82.2021C125.007 82.4659 125.33 82.6341 125.669 82.7076C126.114 82.8039 126.587 82.7368 126.993 82.5061C127.136 82.4248 127.27 82.3239 127.392 82.2022L128.451 81.1427C129.138 80.4559 129.18 79.3684 128.577 78.6326C128.538 78.5847 128.496 78.5384 128.451 78.4935Z" fill="#702DFF"/>
<path d="M113.923 82.8123C113.806 82.8123 113.689 82.8015 113.574 82.7805C113.186 82.7098 112.834 82.5249 112.555 82.2461L102.06 71.7512C101.718 71.4089 101.263 71.2205 100.779 71.2205C100.295 71.2205 99.8404 71.4089 99.4982 71.7512L89.0034 82.2461C88.7247 82.5249 88.3725 82.7098 87.9851 82.7805C87.7553 82.8224 87.5163 82.8224 87.2863 82.7805C86.899 82.7098 86.5469 82.5249 86.268 82.2461L85.2083 81.1865C84.9137 80.8919 84.7252 80.5187 84.6634 80.1072C84.5727 79.5022 84.7764 78.883 85.2083 78.4511L99.4118 64.2478C99.7771 63.8825 100.263 63.6812 100.779 63.6812C101.296 63.6812 101.782 63.8825 102.147 64.2478L110.974 73.0742L115.678 68.3696C116.044 68.0043 116.529 67.8031 117.046 67.8031C117.563 67.8031 118.048 68.0043 118.414 68.3696L128.495 78.4511C128.54 78.4956 128.583 78.5439 128.625 78.5943C129.257 79.366 129.201 80.4803 128.495 81.1866L127.436 82.2462C127.313 82.3684 127.175 82.4739 127.024 82.5599C126.734 82.725 126.404 82.8121 126.068 82.8121C126.068 82.8121 126.068 82.8121 126.068 82.8121C125.93 82.8121 125.792 82.7974 125.657 82.7682C125.294 82.6897 124.963 82.5093 124.7 82.2462L117.046 74.5922L114.769 76.8695L116.351 78.4512C116.783 78.883 116.986 79.5022 116.895 80.1073C116.834 80.5185 116.645 80.8917 116.351 81.1866L115.291 82.2462C115.012 82.5251 114.66 82.7099 114.273 82.7807C114.158 82.8015 114.04 82.8123 113.923 82.8123ZM100.779 71.0981C101.296 71.0981 101.782 71.2994 102.147 71.6647L112.642 82.1595C112.903 82.4207 113.233 82.5939 113.596 82.6601C113.811 82.6995 114.035 82.6995 114.251 82.6601C114.613 82.5939 114.943 82.4207 115.204 82.1595L116.264 81.0999C116.54 80.8237 116.716 80.4742 116.774 80.089C116.859 79.522 116.669 78.9421 116.264 78.5375L114.596 76.8692L117.046 74.4188L124.787 82.1595C125.033 82.4059 125.343 82.575 125.683 82.6485C126.116 82.742 126.58 82.6715 126.963 82.4534C127.105 82.3729 127.235 82.2738 127.349 82.1595L128.409 81.0999C129.07 80.4385 129.123 79.3946 128.53 78.6719C128.491 78.6247 128.45 78.5794 128.409 78.5375L118.327 68.4561C117.985 68.1138 117.53 67.9254 117.046 67.9254C116.562 67.9254 116.107 68.1138 115.765 68.4561L110.974 73.2472L102.061 64.3342C101.718 63.9919 101.263 63.8035 100.779 63.8035C100.296 63.8035 99.8406 63.9919 99.4983 64.3342L85.295 78.5375C84.8904 78.9421 84.6997 79.5221 84.7847 80.089C84.8425 80.4743 85.0191 80.824 85.295 81.0999L86.3547 82.1595C86.616 82.4207 86.9458 82.5939 87.3085 82.6601C87.524 82.6995 87.748 82.6995 87.9633 82.6601C88.3261 82.5939 88.656 82.4207 88.9171 82.1595L99.4119 71.6647C99.7771 71.2994 100.263 71.0981 100.779 71.0981Z" fill="#702DFF"/>
<path d="M127.133 52.352C126.316 52.031 125.427 51.8546 124.498 51.8546C120.513 51.8546 117.271 55.0966 117.271 59.0815C117.271 63.0665 120.513 66.3084 124.498 66.3084C125.427 66.3084 126.316 66.1319 127.133 65.811C128.135 65.417 129.029 64.8054 129.755 64.0346C130.976 62.7401 131.725 60.9968 131.725 59.0815C131.725 57.1663 130.976 55.4229 129.755 54.1284C129.029 53.3576 128.135 52.7459 127.133 52.352ZM124.498 61.0638C123.403 61.0638 122.515 60.1762 122.515 59.0815C122.515 57.9868 123.403 57.0993 124.498 57.0993C125.592 57.0993 126.48 57.9869 126.48 59.0815C126.48 60.1762 125.593 61.0638 124.498 61.0638Z" fill="#702DFF"/>
<path d="M124.499 66.3702C120.48 66.3702 117.21 63.1007 117.21 59.0821C117.21 55.0634 120.48 51.794 124.499 51.794C125.415 51.794 126.309 51.9628 127.156 52.2957C128.149 52.686 129.064 53.3054 129.8 54.087C131.081 55.4456 131.787 57.2195 131.787 59.0821C131.787 60.9446 131.081 62.7185 129.8 64.0772C129.064 64.8586 128.15 65.478 127.156 65.8686C126.309 66.2013 125.415 66.3702 124.499 66.3702ZM124.499 51.9164C120.547 51.9164 117.333 55.1309 117.333 59.0821C117.333 63.0333 120.547 66.2477 124.499 66.2477C125.399 66.2477 126.278 66.0819 127.111 65.7545C128.088 65.3706 128.987 64.7617 129.711 63.9932C130.971 62.6573 131.664 60.9133 131.664 59.0821C131.664 57.2509 130.971 55.5067 129.711 54.171C128.987 53.4025 128.088 52.7935 127.111 52.4097C126.278 52.0824 125.399 51.9164 124.499 51.9164ZM124.498 61.1257C123.372 61.1257 122.455 60.209 122.455 59.0822C122.455 57.9554 123.372 57.0388 124.498 57.0388C125.625 57.0388 126.542 57.9556 126.542 59.0822C126.542 60.209 125.625 61.1257 124.498 61.1257ZM124.498 57.1612C123.439 57.1612 122.577 58.0229 122.577 59.0821C122.577 60.1414 123.439 61.0032 124.498 61.0032C125.558 61.0032 126.419 60.1413 126.419 59.0821C126.42 58.0229 125.558 57.1612 124.498 57.1612Z" fill="#702DFF"/>
<defs>
<linearGradient id="paint0_linear_9198_2" x1="103.655" y1="0.810425" x2="103.655" y2="126.645" gradientUnits="userSpaceOnUse">
<stop stop-color="white"/>
<stop offset="0.0001" stop-color="#E5E5E5"/>
<stop offset="1" stop-color="#E6E6E6"/>
</linearGradient>
</defs>
</svg>
