<svg width="75" height="75" viewBox="0 0 75 75" fill="none" xmlns="http://www.w3.org/2000/svg">
<g clip-path="url(#clip0_174_674)">
<path d="M67.0448 17.8289H65.3775V16.1617C65.3775 12.237 62.1847 9.04407 58.26 9.04407H7.1692C3.24443 9.04407 0.0515137 12.2371 0.0515137 16.1617V49.6022C0.0515137 53.5268 3.24456 56.7199 7.1692 56.7199H8.83636V58.387C8.83636 62.3118 12.0294 65.5047 15.954 65.5047H67.0446C70.9693 65.5047 74.1624 62.3118 74.1624 58.387V24.9466C74.1622 21.0218 70.9694 17.8289 67.0448 17.8289ZM68.9176 58.3869C68.9176 59.4214 68.079 60.26 67.0447 60.26H15.954C14.9196 60.26 14.081 59.4214 14.081 58.3869V56.7198V54.0975V51.4751V24.9466C14.081 23.912 14.9196 23.0735 15.954 23.0735H60.1329H62.7552H65.3775H67.0448C68.0792 23.0735 68.9178 23.9121 68.9178 24.9466V58.3869H68.9176ZM5.29612 49.6021V16.1617C5.29612 15.1273 6.13472 14.2887 7.1692 14.2887H58.26C59.2943 14.2887 60.1329 15.1273 60.1329 16.1617V17.8289H15.954C12.0294 17.8289 8.83636 21.0219 8.83636 24.9466V51.4751H7.16932C6.13472 51.4751 5.29612 50.6366 5.29612 49.6021Z" fill="#702DFF"/>
<path d="M67.0451 65.5665H15.9545C11.996 65.5665 8.77557 62.346 8.77557 58.3876V56.7816H7.16974C3.21131 56.7816 -0.00915527 53.5612 -0.00915527 49.6027V16.1624C-0.00915527 12.204 3.21131 8.98352 7.16974 8.98352H58.2605C62.2188 8.98352 65.4393 12.204 65.4393 16.1624V17.7684H67.0453C71.0037 17.7684 74.2241 20.9888 74.2241 24.9472V58.3876C74.224 62.346 71.0036 65.5665 67.0451 65.5665ZM7.16974 9.10582C3.27876 9.10582 0.113268 12.2714 0.113268 16.1624V49.6029C0.113268 53.4937 3.27876 56.6593 7.16974 56.6593H8.89811V58.3877C8.89811 62.2785 12.0636 65.4442 15.9546 65.4442H67.0451C70.9361 65.4442 74.1017 62.2787 74.1017 58.3877V24.9472C74.1017 21.0563 70.9363 17.8908 67.0453 17.8908H65.3168V16.1624C65.3168 12.2714 62.1515 9.10594 58.2605 9.10594H7.16974V9.10582ZM67.0453 60.3219H15.9546C14.888 60.3219 14.0203 59.4541 14.0203 58.3876V24.9472C14.0203 23.8807 14.888 23.013 15.9546 23.013H67.0453C68.1119 23.013 68.9795 23.8807 68.9795 24.9472V58.3876C68.9794 59.4541 68.1118 60.3219 67.0453 60.3219ZM15.9546 23.1354C14.9555 23.1354 14.1427 23.9483 14.1427 24.9472V58.3876C14.1427 59.3867 14.9555 60.1994 15.9546 60.1994H67.0453C68.0443 60.1994 68.8571 59.3867 68.8571 58.3876V24.9472C68.8571 23.9481 68.0443 23.1354 67.0453 23.1354H15.9546ZM8.89811 51.537H7.16986C6.10331 51.537 5.23546 50.6693 5.23546 49.6027V16.1624C5.23546 15.0959 6.10319 14.2281 7.16974 14.2281H58.2605C59.327 14.2281 60.1947 15.0959 60.1947 16.1624V17.8908H15.9546C12.0636 17.8908 8.89811 21.0563 8.89811 24.9472V51.537V51.537ZM7.16974 14.3504C6.17065 14.3504 5.35788 15.1632 5.35788 16.1623V49.6027C5.35788 50.6017 6.17077 51.4146 7.16986 51.4146H8.77581V24.9472C8.77581 20.9888 11.9963 17.7684 15.9547 17.7684H60.0724V16.1624C60.0724 15.1633 59.2596 14.3505 58.2606 14.3505H7.16974V14.3504Z" fill="#702DFF"/>
<path d="M61.4511 52.4936L59.7254 50.7678L51.3698 42.4122C50.6383 41.6806 49.4524 41.6806 48.7209 42.4122L43.973 47.16L35.1033 38.2903C34.3718 37.5587 33.1857 37.5587 32.4544 38.2903L19.2695 51.4752L18.251 52.4936C17.8139 52.9307 17.6382 53.5298 17.7233 54.0975C17.7808 54.4799 17.9564 54.8482 18.251 55.1426L19.3107 56.2022C19.5899 56.4814 19.9355 56.6537 20.2967 56.7198C20.5203 56.7607 20.7499 56.7607 20.9734 56.7198C21.3347 56.6538 21.6803 56.4815 21.9595 56.2022L24.0642 54.0975L26.6865 51.4752L32.4543 45.7075C33.1858 44.9759 34.3718 44.9759 35.1031 45.7075L40.8707 51.4752L43.493 54.0975L45.5979 56.2022C45.8771 56.4814 46.2227 56.6537 46.584 56.7198C46.8075 56.7607 47.0371 56.7607 47.2606 56.7198C47.6219 56.6538 47.9674 56.4815 48.2467 56.2022L49.3064 55.1426C49.6007 54.848 49.7765 54.4799 49.834 54.0975C49.919 53.5298 49.7436 52.9308 49.3064 52.4936L48.2879 51.4752L47.6815 50.8687L50.0451 48.5048L53.0156 51.4752L55.6379 54.0975L57.7425 56.2022C58.0064 56.466 58.3298 56.6342 58.6692 56.7076C59.1143 56.804 59.5872 56.7369 59.9928 56.5061C60.1355 56.4249 60.2699 56.324 60.3916 56.2023L61.4511 55.1427C62.138 54.4559 62.1798 53.3684 61.577 52.6327C61.5376 52.5848 61.4958 52.5384 61.4511 52.4936Z" fill="#702DFF"/>
<path d="M46.9229 56.8123C46.806 56.8123 46.6885 56.8015 46.5735 56.7806C46.1862 56.7099 45.8341 56.525 45.5552 56.2461L35.0604 45.7513C34.7182 45.409 34.2632 45.2206 33.7792 45.2206C33.2953 45.2206 32.8402 45.409 32.4981 45.7513L22.0033 56.2461C21.7246 56.525 21.3724 56.7099 20.985 56.7806C20.7552 56.8225 20.5161 56.8225 20.2862 56.7806C19.8989 56.7099 19.5468 56.525 19.2679 56.2461L18.2082 55.1865C17.9135 54.892 17.7251 54.5187 17.6633 54.1073C17.5726 53.5022 17.7763 52.883 18.2082 52.4511L32.4116 38.2478C32.7769 37.8825 33.2627 37.6813 33.7793 37.6813C34.296 37.6813 34.7817 37.8825 35.1471 38.2478L43.9735 47.0743L48.6782 42.3697C49.0436 42.0044 49.5292 41.8031 50.046 41.8031C50.5627 41.8031 51.0484 42.0044 51.4137 42.3697L61.495 52.4511C61.5395 52.4957 61.5834 52.5439 61.625 52.5944C62.2573 53.3661 62.2014 54.4804 61.495 55.1867L60.4355 56.2462C60.3133 56.3684 60.1748 56.4739 60.0237 56.56C59.7339 56.725 59.4036 56.8122 59.0683 56.8122C59.0682 56.8122 59.0682 56.8122 59.0682 56.8122C58.9301 56.8122 58.7917 56.7975 58.6571 56.7682C58.294 56.6898 57.9631 56.5093 57.7 56.2462L50.046 48.5922L47.7689 50.8695L49.3506 52.4512C49.7824 52.883 49.986 53.5022 49.8953 54.1074C49.8336 54.5186 49.6453 54.8917 49.3506 55.1867L48.2909 56.2462C48.012 56.5251 47.6599 56.71 47.2726 56.7807C47.1574 56.8015 47.0399 56.8123 46.9229 56.8123ZM33.7793 45.0981C34.296 45.0981 34.7817 45.2994 35.1471 45.6647L45.6419 56.1596C45.9032 56.4208 46.233 56.5939 46.5957 56.6601C46.8109 56.6996 47.0352 56.6996 47.2504 56.6601C47.6132 56.5939 47.943 56.4208 48.2042 56.1596L49.2639 55.1C49.5399 54.8238 49.7163 54.4743 49.7742 54.089C49.8591 53.5221 49.6684 52.9422 49.2639 52.5376L47.5957 50.8693L50.0458 48.4189L57.7865 56.1596C58.0331 56.406 58.3429 56.5751 58.6829 56.6485C59.116 56.742 59.58 56.6715 59.9632 56.4535C60.1047 56.3729 60.2346 56.2739 60.349 56.1596L61.4084 55.1C62.07 54.4385 62.1224 53.3946 61.5304 52.672C61.4913 52.6247 61.4503 52.5794 61.4084 52.5376L51.3271 42.4561C50.9849 42.1138 50.5299 41.9254 50.046 41.9254C49.562 41.9254 49.107 42.1138 48.7648 42.4561L43.9735 47.2473L35.0605 38.3343C34.7183 37.992 34.2633 37.8036 33.7793 37.8036C33.2954 37.8036 32.8405 37.992 32.4982 38.3343L18.2949 52.5376C17.8903 52.9422 17.6995 53.5222 17.7846 54.089C17.8424 54.4744 18.0189 54.824 18.2949 55.1L19.3546 56.1596C19.6158 56.4208 19.9456 56.5939 20.3084 56.6601C20.5238 56.6996 20.7479 56.6996 20.9632 56.6601C21.326 56.5939 21.6559 56.4208 21.917 56.1596L32.4117 45.6647C32.7769 45.2994 33.2627 45.0981 33.7793 45.0981Z" fill="#702DFF"/>
<path d="M60.1328 26.3521C59.316 26.0311 58.427 25.8547 57.4979 25.8547C53.5129 25.8547 50.2709 29.0967 50.2709 33.0815C50.2709 37.0665 53.5129 40.3084 57.4979 40.3084C58.4271 40.3084 59.3161 40.132 60.1328 39.811C61.1352 39.4171 62.0287 38.8054 62.7551 38.0347C63.9755 36.7402 64.7247 34.9969 64.7247 33.0815C64.7247 31.1664 63.9755 29.4229 62.7551 28.1284C62.0287 27.3577 61.1351 26.7459 60.1328 26.3521ZM57.4975 35.0638C56.4029 35.0638 55.5154 34.1763 55.5154 33.0815C55.5154 31.9868 56.4029 31.0994 57.4975 31.0994C58.5924 31.0994 59.4799 31.987 59.4799 33.0815C59.48 34.1763 58.5925 35.0638 57.4975 35.0638Z" fill="#702DFF"/>
<path d="M57.4984 40.3702C53.4796 40.3702 50.2102 37.1008 50.2102 33.0821C50.2102 29.0635 53.4796 25.7941 57.4984 25.7941C58.4144 25.7941 59.3086 25.9629 60.1557 26.2958C61.1491 26.686 62.0636 27.3055 62.8003 28.087C64.0811 29.4457 64.7865 31.2196 64.7865 33.0821C64.7865 34.9447 64.0811 36.7186 62.8003 38.0773C62.0638 38.8587 61.1495 39.478 60.1557 39.8687C59.3087 40.2014 58.4148 40.3702 57.4984 40.3702ZM57.4984 25.9165C53.5472 25.9165 50.3326 29.1309 50.3326 33.0821C50.3326 37.0334 53.5472 40.2478 57.4984 40.2478C58.3992 40.2478 59.2782 40.0819 60.1111 39.7546C61.0879 39.3706 61.987 38.7617 62.7111 37.9933C63.9705 36.6574 64.664 34.9134 64.664 33.0821C64.664 31.2509 63.9705 29.5068 62.7111 28.171C61.9868 27.4026 61.0876 26.7935 60.1111 26.4097C59.2781 26.0825 58.3992 25.9165 57.4984 25.9165ZM57.4982 35.1258C56.3714 35.1258 55.4548 34.2091 55.4548 33.0823C55.4548 31.9555 56.3714 31.0389 57.4982 31.0389C58.6251 31.0389 59.5418 31.9556 59.5418 33.0823C59.5419 34.2091 58.6251 35.1258 57.4982 35.1258ZM57.4982 31.1612C56.439 31.1612 55.5772 32.0229 55.5772 33.0821C55.5772 34.1415 56.439 35.0032 57.4982 35.0032C58.5575 35.0032 59.4194 34.1414 59.4194 33.0821C59.4195 32.0229 58.5576 31.1612 57.4982 31.1612Z" fill="#702DFF"/>
</g>
<defs>
<clipPath id="clip0_174_674">
<rect width="74.2331" height="74.2331" fill="white" transform="translate(-0.00915527 0.158447)"/>
</clipPath>
</defs>
</svg>
